<?xml version="1.0" encoding="UTF-8" standalone="no"?>
<svg
   xmlns:dc="http://purl.org/dc/elements/1.1/"
   xmlns:cc="http://creativecommons.org/ns#"
   xmlns:rdf="http://www.w3.org/1999/02/22-rdf-syntax-ns#"
   xmlns:svg="http://www.w3.org/2000/svg"
   xmlns="http://www.w3.org/2000/svg"
   xmlns:sodipodi="http://sodipodi.sourceforge.net/DTD/sodipodi-0.dtd"
   xmlns:inkscape="http://www.inkscape.org/namespaces/inkscape"
   width="540"
   height="540"
   viewBox="0 0 142.875 142.875"
   version="1.1"
   id="svg8"
   inkscape:version="1.0.1 (3bc2e813f5, 2020-09-07)"
   sodipodi:docname="logo.svg">
  <defs
     id="defs2">
    <inkscape:perspective
       sodipodi:type="inkscape:persp3d"
       inkscape:vp_x="0 : -5.6250042 : 1"
       inkscape:vp_y="0 : 999.99997 : 0"
       inkscape:vp_z="210.00001 : -5.6250042 : 1"
       inkscape:persp3d-origin="105 : -55.125002 : 1"
       id="perspective34" />
  </defs>
  <sodipodi:namedview
     id="base"
     pagecolor="#ffffff"
     bordercolor="#666666"
     borderopacity="1.0"
     inkscape:pageopacity="0"
     inkscape:pageshadow="2"
     inkscape:zoom="2.2317873"
     inkscape:cx="435.97065"
     inkscape:cy="231.8844"
     inkscape:document-units="mm"
     inkscape:current-layer="layer1"
     inkscape:document-rotation="0"
     showgrid="false"
     inkscape:window-width="3840"
     inkscape:window-height="2050"
     inkscape:window-x="3348"
     inkscape:window-y="-12"
     inkscape:window-maximized="1"
     inkscape:pagecheckerboard="true"
     units="px" />
  <metadata
     id="metadata5">
    <rdf:RDF>
      <cc:Work
         rdf:about="">
        <dc:format>image/svg+xml</dc:format>
        <dc:type
           rdf:resource="http://purl.org/dc/dcmitype/StillImage" />
        <dc:title />
      </cc:Work>
    </rdf:RDF>
  </metadata>
  <g
     inkscape:label="Layer 1"
     inkscape:groupmode="layer"
     id="layer1"
     transform="translate(-38.15368,-69.175961)">
    <path
       id="rect900"
       style="opacity:1;fill:#00d1b2;fill-opacity:1;stroke:none;stroke-width:0.397342;stroke-opacity:1"
       d="M 264.82227 2.3378906 C 264.4719 2.3351316 264.12157 2.3406786 263.76758 2.3574219 L 263.76562 2.3574219 C 252.43861 2.8832222 243.77652 13.145564 244.34375 25.365234 L 244.83984 36.044922 C 244.85118 36.278421 244.87009 36.508905 244.88672 36.740234 C 239.12241 37.473875 234.82338 42.488821 235.09766 48.398438 L 243.85156 236.95898 C 241.26733 237.00246 238.65054 237.03889 236.09961 237.08789 C 218.26142 157.41493 197.60352 63.990234 197.60352 63.990234 C 194.53566 49.078777 182.91655 39.804868 168.41992 40.253906 C 166.34897 40.317894 164.22065 40.581785 162.04883 41.054688 C 144.65182 45.097588 136.02174 59.123731 140.00391 76.236328 L 176.96875 238.92383 C 175.84999 238.97481 174.66567 239.01761 173.5625 239.07031 C 158.44512 239.74783 148.30707 253.69221 148.93359 267.94141 C 87.285535 269.70811 67.667684 286.50548 58.058594 334.70508 C 48.657393 408.85189 102.98517 470.49635 176.28125 466.89453 C 180.92235 483.32682 185.22014 496.51794 192.04297 514.50195 C 197.17589 528.0316 210.32383 531.47596 217.95508 533.36523 C 281.97918 539.2339 319.47289 538.87073 377.25586 533.62305 C 397.05314 530.40928 403.14624 517.81419 404.4707 514.79688 C 436.15505 442.6158 444.07096 347.18177 444.78125 266.19727 C 444.73048 253.09847 438.26255 241.40689 423.24609 238.21289 L 481.74219 85.423828 C 485.23288 76.320768 481.25415 65.141561 472.29883 61.712891 L 407.64453 36.958984 C 405.97424 36.293478 404.26622 35.91107 402.57031 35.787109 C 402.11099 35.753472 401.65376 35.738068 401.19727 35.742188 C 394.34937 35.80334 387.92253 40.050412 385.26367 46.984375 L 312.73633 236.41797 C 310.39637 236.41827 308.0383 236.4065 305.70508 236.41016 L 298.93945 90.695312 C 300.53547 88.234863 305.56877 91.428603 306.09961 97.84375 C 308.00389 118.92767 305.21219 141.00305 320.57227 157.54102 C 324.818 162.11232 329.05859 158.74805 329.05859 158.74805 C 333.52441 156.32662 330.96875 149.71484 330.96875 149.71484 C 330.96875 149.71484 325.65019 135.55559 324.8125 118.31055 C 324.00527 101.69362 338.48711 75.756945 320.60938 61.441406 C 309.26543 52.357856 300.34836 53.527869 297.22266 53.71875 L 296.8418 45.533203 C 296.56249 39.532874 291.67508 34.891386 285.74609 34.830078 C 285.7436 34.602399 285.74546 34.375546 285.73242 34.146484 L 285.23633 23.466797 C 284.68682 11.628999 275.6824 2.4235612 264.82227 2.3378906 z M 400.38867 54.277344 L 465.15234 79.072266 L 404.51758 237.19922 C 380.37675 236.79359 355.40988 236.52312 330.42773 236.43945 C 336.46835 220.84792 342.15432 206.14728 347.13867 193.14844 L 380.55469 205.94141 L 387.4043 188.04883 L 353.99805 175.25977 L 364.52539 147.80469 L 397.91797 160.58984 L 404.76953 142.69922 L 371.38477 129.91797 L 381.91211 102.46484 L 415.28125 115.24023 L 422.13086 97.345703 L 388.77148 84.574219 L 400.38867 54.277344 z M 170.80664 54.882812 C 177.95787 55.133323 182.21356 60.014154 183.91602 68.289062 C 183.91602 68.289062 185.97794 77.60431 186.85156 81.554688 L 157.99609 88.103516 L 154.87891 74.378906 C 152.67957 64.41908 156.00978 57.907621 165.6875 55.396484 C 166.97306 55.116535 168.18717 54.953189 169.33594 54.896484 C 169.83853 54.87167 170.32989 54.866112 170.80664 54.882812 z M 279.16016 56.828125 L 287.5 236.47266 C 278.72527 236.52108 270.08332 236.60365 261.5293 236.70508 L 253.23438 58.023438 L 279.16016 56.828125 z M 227.00195 294.22461 L 270.14062 294.22461 L 328.64258 406.31836 L 328.64258 294.62109 L 371.7832 294.62109 L 371.7832 476.01172 L 328.64258 476.01172 L 270.14062 363.91602 L 270.14062 475.61523 L 227.00195 475.61523 L 227.00195 294.22461 z M 131.42578 301.17188 C 142.85535 301.20589 147.82582 306.79782 151.9043 314.26953 C 155.31643 361.44624 159.07946 389.96001 165.10938 421.57031 C 103.06496 433.39918 87.918906 367.55613 90.984375 342.31641 C 93.726075 322.72031 103.41749 306.51209 122.41211 302.08203 C 125.80623 301.45255 128.78818 301.16413 131.42578 301.17188 z "
       transform="matrix(0.26458333,0,0,0.26458333,38.15368,69.175961)" />
  </g>
</svg>
