<?xml version="1.0" encoding="UTF-8" standalone="no"?>
<svg
   xmlns:dc="http://purl.org/dc/elements/1.1/"
   xmlns:cc="http://creativecommons.org/ns#"
   xmlns:rdf="http://www.w3.org/1999/02/22-rdf-syntax-ns#"
   xmlns:svg="http://www.w3.org/2000/svg"
   xmlns="http://www.w3.org/2000/svg"
   xmlns:sodipodi="http://sodipodi.sourceforge.net/DTD/sodipodi-0.dtd"
   xmlns:inkscape="http://www.inkscape.org/namespaces/inkscape"
   width="675"
   height="190"
   viewBox="0 0 178.59375 50.270835"
   version="1.1"
   id="svg8"
   inkscape:version="1.0.1 (3bc2e813f5, 2020-09-07)"
   sodipodi:docname="logo-text-inverted.svg">
  <defs
     id="defs2">
    <rect
       x="48.910324"
       y="115.72771"
       width="120.53856"
       height="25.123337"
       id="rect14" />
    <inkscape:perspective
       sodipodi:type="inkscape:persp3d"
       inkscape:vp_x="0 : 149.83012 : 1"
       inkscape:vp_y="0 : 1000 : 0"
       inkscape:vp_z="209.99999 : 149.83012 : 1"
       inkscape:persp3d-origin="105 : 100.33012 : 1"
       id="perspective34" />
    <rect
       x="48.910324"
       y="115.72771"
       width="120.53856"
       height="25.123337"
       id="rect14-9" />
    <rect
       x="48.910324"
       y="115.72771"
       width="120.53856"
       height="25.123337"
       id="rect850" />
    <rect
       x="48.910324"
       y="115.72771"
       width="120.53856"
       height="25.123337"
       id="rect14-0" />
    <rect
       x="48.910324"
       y="115.72771"
       width="120.53856"
       height="25.123337"
       id="rect850-0" />
    <rect
       x="48.910324"
       y="115.72771"
       width="120.53856"
       height="25.123337"
       id="rect14-4" />
    <rect
       x="48.910324"
       y="115.72771"
       width="120.53856"
       height="25.123337"
       id="rect850-1" />
  </defs>
  <sodipodi:namedview
     id="base"
     pagecolor="#ffffff"
     bordercolor="#666666"
     borderopacity="1.0"
     inkscape:pageopacity="0.0"
     inkscape:pageshadow="2"
     inkscape:zoom="2.6071202"
     inkscape:cx="457.42829"
     inkscape:cy="-80.005235"
     inkscape:document-units="mm"
     inkscape:current-layer="layer1"
     inkscape:document-rotation="0"
     showgrid="false"
     inkscape:window-width="3840"
     inkscape:window-height="2050"
     inkscape:window-x="3348"
     inkscape:window-y="-12"
     inkscape:window-maximized="1"
     units="px"
     inkscape:pagecheckerboard="true" />
  <metadata
     id="metadata5">
    <rdf:RDF>
      <cc:Work
         rdf:about="">
        <dc:format>image/svg+xml</dc:format>
        <dc:type
           rdf:resource="http://purl.org/dc/dcmitype/StillImage" />
        <dc:title />
      </cc:Work>
    </rdf:RDF>
  </metadata>
  <g
     inkscape:label="Layer 1"
     inkscape:groupmode="layer"
     id="layer1"
     transform="translate(-10.89219,-87.038046)">
    <path
       id="rect900"
       style="opacity:1;fill:#ffffff;fill-opacity:1;stroke:none;stroke-width:0.036326;stroke-opacity:1"
       d="m 30.636708,87.703074 c -0.03203,-2.54e-4 -0.06376,5.29e-4 -0.09612,0.0021 h -5.29e-4 c -1.035545,0.04808 -1.827464,0.986075 -1.775603,2.103231 l 0.04548,0.976169 c 0.0011,0.0213 0.0027,0.04243 0.0041,0.06356 -0.526989,0.06708 -0.919593,0.525817 -0.894519,1.066086 l 0.799952,17.24029 c -0.232635,0.004 -0.476737,0.005 -0.706416,0.01 -1.630241,-7.28158 -3.521732,-15.824927 -3.521732,-15.824927 -0.280471,-1.363239 -1.342738,-2.21094 -2.668054,-2.169893 -0.189333,0.0057 -0.383839,0.03015 -0.582393,0.07338 -1.590476,0.369607 -2.379441,1.651866 -2.015381,3.216342 l 3.379639,14.874028 c -0.09969,0.005 -0.21328,0.008 -0.311609,0.0124 -1.382067,0.0619 -2.308821,1.33693 -2.251542,2.63963 -5.636016,0.16152 -7.429534,1.69697 -8.30802,6.1035 -0.859481,6.77868 4.10722,12.41434 10.808125,12.08505 0.424302,1.50228 0.817496,2.70804 1.441256,4.35219 0.469264,1.23691 1.67118,1.55225 2.368848,1.72496 5.853238,0.53653 9.280794,0.50296 14.563451,0.0233 1.809917,-0.29381 2.367135,-1.44498 2.488221,-1.72082 2.896659,-6.59897 3.620111,-15.32402 3.685045,-22.72782 -0.0047,-1.19739 -0.596855,-2.26482 -1.969389,-2.55695 l 5.348513,-13.969688 c 0.319127,-0.83222 -0.0448,-1.854372 -0.863513,-2.167826 l -5.910752,-2.262913 c -0.152701,-0.06083 -0.308493,-0.09564 -0.463537,-0.106971 -0.04199,-0.0032 -0.08436,-0.0047 -0.126089,-0.0041 -0.626052,0.0057 -1.213165,0.393411 -1.456243,1.027326 l -6.630604,17.318832 c -0.213974,3e-5 -0.429495,-10e-4 -0.642853,-10e-4 L 33.755897,95.781107 c 0.145912,-0.224941 0.60621,0.0667 0.65474,0.65319 0.174096,1.927537 -0.08134,3.946123 1.322917,5.458073 0.388157,0.41792 0.776182,0.11007 0.776182,0.11007 0.408273,-0.22137 0.174148,-0.82579 0.174148,-0.82579 0,0 -0.486171,-1.29457 -0.562755,-2.871148 -0.0738,-1.519161 1.250468,-3.890404 -0.383955,-5.199166 -1.037093,-0.830439 -1.852613,-0.723352 -2.138371,-0.7059 l -0.03462,-0.748276 c -0.02553,-0.548563 -0.472369,-0.973143 -1.01441,-0.978752 -2.28e-4,-0.02082 -5.29e-4,-0.04108 -0.0016,-0.06201 l -0.04496,-0.976686 c -0.05023,-1.082244 -0.873682,-1.92383 -1.866542,-1.931665 z m 12.393559,4.748548 5.921087,2.266527 -5.544365,14.459071 c -2.211461,-0.0372 -4.486463,-0.0647 -6.775296,-0.0724 0.516673,-1.33392 1.100751,-2.83622 1.530654,-3.95738 l 3.055112,1.16944 0.6258,-1.63556 -3.054077,-1.16944 0.962731,-2.50992 3.053046,1.16892 0.6258,-1.63557 -3.052008,-1.168916 0.962731,-2.509406 3.050458,1.167887 0.626319,-1.636075 -3.049942,-1.167371 z m -21.123258,0.05633 c 0.735168,-0.03628 1.167233,0.417783 1.333252,1.22473 0,0 0.188333,0.851178 0.268201,1.212329 l -2.638082,0.598932 -0.285254,-1.254704 c -0.201069,-0.910548 0.103809,-1.505723 0.98857,-1.735294 0.117529,-0.02556 0.22829,-0.04079 0.333313,-0.04599 z m 10.040731,0.176734 0.762227,16.426904 c -0.801462,0.004 -1.592733,0.0103 -2.374016,0.0196 L 29.577343,92.794231 Z m -4.768701,21.703064 h 3.943944 l 5.348512,10.24847 v -10.21178 h 3.943946 v 16.58297 h -3.943946 l -5.348512,-10.24795 v 10.21178 h -3.943944 z m -8.737451,0.63562 c 1.044919,0.003 1.499372,0.51426 1.872237,1.19734 0.311945,4.31301 0.655891,6.91985 1.207161,9.80974 -5.672251,1.08143 -7.0571,-4.93807 -6.776847,-7.24555 0.250652,-1.79152 1.136674,-3.27333 2.873209,-3.67833 0.310299,-0.0575 0.583103,-0.084 0.82424,-0.0832 z" />
    <g
       aria-label="iedostateczny"
       transform="matrix(1.6508455,0,0,1.6508455,-33.331941,-88.082142)"
       id="text12"
       style="font-style:normal;font-variant:normal;font-weight:normal;font-stretch:normal;font-size:14.1111px;line-height:1.75;font-family:'Berlin Sans FB Demi';-inkscape-font-specification:'Berlin Sans FB Demi, Normal';font-variant-ligatures:normal;font-variant-caps:normal;font-variant-numeric:normal;font-variant-east-asian:normal;white-space:pre;shape-inside:url(#rect14);fill:#ffffff;fill-opacity:1;stroke:none">
      <path
         d="m 52.224336,124.29194 q 0,1.1989 -1.350477,1.1989 -0.578775,0 -0.957736,-0.30317 -0.413411,-0.33073 -0.413411,-0.89573 0,-0.53743 0.427192,-0.88194 0.39274,-0.31695 0.943955,-0.31695 0.537435,0 0.930175,0.32384 0.420302,0.34451 0.420302,0.87505 z m -0.179145,5.11941 q 0,0.50298 0.02067,1.50206 0.02067,0.99219 0.02067,1.48828 0,0.1447 -0.172255,0.17226 -0.234266,0.0413 -1.054198,0.0413 -0.826822,0 -1.061089,-0.0413 -0.151584,-0.0276 -0.186035,-0.0896 -0.01378,-0.0276 -0.01378,-0.2067 0,-0.47542 0.02067,-1.42627 0.02067,-0.95774 0.02067,-1.44005 0,-1.95681 -0.151584,-3.11436 -0.01378,-0.11025 -0.01378,-0.1447 0,-0.1378 0.186035,-0.1378 0.192926,0 0.585666,0.0413 0.399631,0.0413 0.599446,0.0413 0.199816,0 0.599447,-0.0345 0.39963,-0.0344 0.599446,-0.0344 0.165364,0 0.165364,0.1378 0,0.0276 -0.01378,0.13092 -0.151584,1.34358 -0.151584,3.11436 z"
         style="font-style:normal;font-variant:normal;font-weight:normal;font-stretch:normal;font-size:14.1111px;font-family:'Berlin Sans FB Demi';-inkscape-font-specification:'Berlin Sans FB Demi, Normal';font-variant-ligatures:normal;font-variant-caps:normal;font-variant-numeric:normal;font-variant-east-asian:normal;fill:#ffffff;fill-opacity:1"
         id="path844" />
      <path
         d="m 59.686407,128.83258 q 0,0.6959 -0.447863,0.79237 -0.07579,0.0138 -1.426268,0.15158 -0.813042,0.0896 -2.425345,0.2136 0.09646,0.44786 0.585665,0.68213 0.399631,0.19292 0.909505,0.19292 0.613227,0 1.233343,-0.33073 0.261827,-0.16536 0.523654,-0.33073 0.144694,0.0689 0.482313,0.7028 0.34451,0.6339 0.34451,0.80615 0,0.0482 -0.103353,0.15848 -0.840603,0.90261 -2.611381,0.90261 -1.639864,0 -2.645831,-0.95773 -1.033528,-0.97152 -1.033528,-2.5976 0,-1.58475 0.923285,-2.5976 0.950846,-1.04731 2.521808,-1.04731 1.322916,0 2.246201,0.96462 0.923285,0.96463 0.923285,2.29444 z m -2.411565,-0.42031 q 0,-0.42719 -0.303169,-0.75103 -0.303168,-0.32383 -0.723469,-0.32383 -0.434082,0 -0.716579,0.36518 -0.261827,0.33761 -0.261827,0.79237 0,0.18603 0.192925,0.18603 0.509873,0 1.584742,-0.15847 0.227377,-0.0344 0.227377,-0.11025 z"
         style="font-style:normal;font-variant:normal;font-weight:normal;font-stretch:normal;font-size:14.1111px;font-family:'Berlin Sans FB Demi';-inkscape-font-specification:'Berlin Sans FB Demi, Normal';font-variant-ligatures:normal;font-variant-caps:normal;font-variant-numeric:normal;font-variant-east-asian:normal;fill:#ffffff;fill-opacity:1"
         id="path846" />
      <path
         d="m 67.747924,122.79677 q 0,-0.15158 -0.05512,0.45476 -0.07579,0.76481 -0.117133,1.95681 -0.05512,1.35047 -0.05512,3.07302 0,2.84565 0.158474,4.05143 0.01378,0.13091 0.01378,0.16536 0,0.0758 -0.103353,0.0896 -0.248047,0.0344 -1.825899,0.0344 -0.37207,0 -0.427192,-0.1447 -0.01378,-0.26182 -0.02756,-0.52365 -0.0069,-0.0551 -0.05512,-0.11024 -0.04134,0.0207 -0.103353,0.0827 -0.74414,0.73036 -1.86035,0.73036 -1.453829,0 -2.328883,-1.01975 -0.833712,-0.97151 -0.833712,-2.4529 0,-1.50207 0.819932,-2.47358 0.868163,-1.03353 2.342663,-1.03353 1.040418,0 1.619194,0.66146 0.09646,0.11024 0.137803,0.11024 0.06201,0 0.06201,-0.17914 0,-0.53055 -0.02756,-1.58475 -0.02756,-1.05419 -0.02756,-1.57785 0,-0.19981 0.110243,-0.22737 0.440971,-0.0207 1.212672,-0.0827 1.378037,-0.17225 1.219563,-0.17225 0.151584,0 0.151584,0.17225 z m -2.5976,6.33208 q 0,-0.54432 -0.37896,-0.95084 -0.37896,-0.41341 -0.916395,-0.41341 -0.564995,0 -0.902614,0.41341 -0.330729,0.40652 -0.330729,0.9784 0,0.55811 0.337619,0.94396 0.344509,0.41341 0.895724,0.41341 0.551215,0 0.923285,-0.41341 0.37207,-0.41341 0.37207,-0.97152 z"
         style="font-style:normal;font-variant:normal;font-weight:normal;font-stretch:normal;font-size:14.1111px;font-family:'Berlin Sans FB Demi';-inkscape-font-specification:'Berlin Sans FB Demi, Normal';font-variant-ligatures:normal;font-variant-caps:normal;font-variant-numeric:normal;font-variant-east-asian:normal;fill:#ffffff;fill-opacity:1"
         id="path848" />
      <path
         d="m 75.396029,129.18398 q 0,1.57096 -0.964626,2.54936 -0.957735,0.97841 -2.521808,0.97841 -1.51584,0 -2.494247,-0.96463 -0.978406,-0.96462 -0.978406,-2.48046 0,-1.59853 0.937065,-2.59071 0.937065,-0.99908 2.535588,-0.99908 1.557182,0 2.521808,0.97841 0.964626,0.97151 0.964626,2.5287 z m -2.259981,0 q 0,-0.54433 -0.337619,-0.95774 -0.337619,-0.4203 -0.875053,-0.4203 -0.544325,0 -0.895724,0.42719 -0.330729,0.39963 -0.330729,0.95085 0,0.5581 0.330729,0.95773 0.351399,0.42719 0.895724,0.42719 0.537434,0 0.888834,-0.42719 0.323838,-0.39963 0.323838,-0.95773 z"
         style="font-style:normal;font-variant:normal;font-weight:normal;font-stretch:normal;font-size:14.1111px;font-family:'Berlin Sans FB Demi';-inkscape-font-specification:'Berlin Sans FB Demi, Normal';font-variant-ligatures:normal;font-variant-caps:normal;font-variant-numeric:normal;font-variant-east-asian:normal;fill:#ffffff;fill-opacity:1"
         id="path850" />
      <path
         d="m 80.260502,126.99979 q 0,0.0689 -0.103353,0.18603 -0.192925,-0.0482 -0.38585,-0.0482 -0.406521,0 -0.682129,0.17915 -0.330729,0.2067 -0.330729,0.58566 0,0.24116 0.3514,0.61323 0.530544,0.5581 0.654567,0.75103 0.3514,0.52365 0.3514,1.1231 0,0.3514 -0.137804,0.74414 -0.158474,0.43408 -0.399631,0.63389 -0.509873,0.44098 -1.192002,0.74414 -0.73725,0.31695 -1.357366,0.31695 -0.137804,0 -0.620117,-0.74414 -0.475423,-0.75103 -0.475423,-0.91639 0,-0.062 0.07579,-0.0758 0.482313,-0.0896 0.971516,-0.17915 0.606337,-0.19292 0.606337,-0.6339 0,-0.30316 -0.3514,-0.70279 -0.627007,-0.69591 -0.654567,-0.73725 -0.3514,-0.4961 -0.3514,-1.04731 0,-1.03353 1.047308,-1.757 0.937066,-0.64079 2.005044,-0.64079 0.110243,0 0.544325,0.74414 0.434082,0.73725 0.434082,0.86128 z"
         style="font-style:normal;font-variant:normal;font-weight:normal;font-stretch:normal;font-size:14.1111px;font-family:'Berlin Sans FB Demi';-inkscape-font-specification:'Berlin Sans FB Demi, Normal';font-variant-ligatures:normal;font-variant-caps:normal;font-variant-numeric:normal;font-variant-east-asian:normal;fill:#ffffff;fill-opacity:1"
         id="path852" />
      <path
         d="m 85.862223,130.55512 q 0,0.20671 -0.05512,0.62701 -0.04823,0.4203 -0.04823,0.62012 0,0.19292 -0.04134,0.24804 -0.04134,0.0551 -0.227376,0.15848 -0.888834,0.4892 -1.970593,0.4892 -1.991264,0 -1.991264,-1.52273 0,-0.45475 0.03445,-1.36426 0.03445,-0.91639 0.03445,-1.37114 0,-0.30317 -0.3514,-0.30317 -0.02756,0 -0.08957,0 -0.06201,0.007 -0.08957,0.007 -0.261827,0 -0.261827,-0.18604 0,-0.11024 0.01378,-0.33762 0.02067,-0.22737 0.02067,-0.33762 0,-0.14469 -0.02067,-0.44097 -0.01378,-0.29628 -0.01378,-0.44097 0,-0.1378 0.440972,-0.15158 0.248047,-0.007 0.268718,-0.13781 0.04134,-0.26182 0.02756,-0.82682 -0.02756,-0.88883 -0.02756,-0.84749 0,-0.79926 0.151584,-0.79926 0.186035,0 0.530544,0.0827 0.39274,0.0896 0.544325,0.10335 0.351399,0.0482 1.061088,0.13091 0.172255,0.0138 0.172255,0.11714 0,0.2756 -0.04823,0.83371 -0.04134,0.55811 -0.04134,0.8406 0,0.33762 0.199816,0.33762 0.241156,0 0.730359,-0.0207 0.489204,-0.0207 0.73725,-0.0207 0.151584,0 0.151584,0.10335 0,0.15848 -0.03445,0.47543 -0.03445,0.31694 -0.03445,0.47542 0,0.16536 0.0069,0.48231 0.0069,0.31695 0.0069,0.48232 0,0.14469 -0.199815,0.14469 -0.137804,0 -0.461643,-0.007 -0.323839,-0.0138 -0.461642,-0.0138 h -0.516764 q -0.103353,0 -0.103353,0.30317 0,0.16536 0,0.4892 0.0069,0.33073 0.0069,0.4892 0,0.57878 0.130914,0.79926 0.186035,0.29628 0.730359,0.29628 0.172255,0 0.489204,-0.0758 0.323838,-0.0827 0.454752,-0.0827 0.144694,0 0.144694,0.15158 z"
         style="font-style:normal;font-variant:normal;font-weight:normal;font-stretch:normal;font-size:14.1111px;font-family:'Berlin Sans FB Demi';-inkscape-font-specification:'Berlin Sans FB Demi, Normal';font-variant-ligatures:normal;font-variant-caps:normal;font-variant-numeric:normal;font-variant-east-asian:normal;fill:#ffffff;fill-opacity:1"
         id="path854" />
      <path
         d="m 93.510329,129.12885 q 0,0.53055 0.06201,1.57786 0.06201,1.0473 0.06201,1.57096 0,0.27561 -0.241156,0.29628 -0.854383,0.062 -1.956813,0.062 -0.130913,0 -0.179145,-0.39274 -0.04134,-0.39963 -0.103352,-0.40652 -0.05512,0.0276 -0.144694,0.11713 -0.771701,0.77859 -1.653645,0.77859 -1.343586,0 -2.22553,-1.06109 -0.833712,-0.99218 -0.833712,-2.37022 0,-1.59163 0.861273,-2.56315 0.895724,-1.00597 2.452906,-1.00597 1.081759,0 1.708766,0.75792 0.02756,0.0345 0.04823,0.0345 0.06201,0 0.137804,-0.33073 0.08268,-0.33761 0.192925,-0.33761 0.254937,0 0.971516,0.14469 0.682129,0.1378 0.978407,0.23427 0.103353,0.0413 0.103353,0.11024 0,0.0276 -0.02067,0.14469 -0.220486,1.24713 -0.220486,2.63894 z m -2.21864,0.0413 q 0,-0.58566 -0.37207,-0.96462 -0.36518,-0.38585 -0.957736,-0.38585 -0.592556,0 -0.957735,0.37896 -0.36518,0.37896 -0.36518,0.97151 0,0.55811 0.38585,0.95774 0.385851,0.39963 0.937065,0.39963 0.585666,0 0.957736,-0.37896 0.37207,-0.38585 0.37207,-0.97841 z"
         style="font-style:normal;font-variant:normal;font-weight:normal;font-stretch:normal;font-size:14.1111px;font-family:'Berlin Sans FB Demi';-inkscape-font-specification:'Berlin Sans FB Demi, Normal';font-variant-ligatures:normal;font-variant-caps:normal;font-variant-numeric:normal;font-variant-east-asian:normal;fill:#ffffff;fill-opacity:1"
         id="path856" />
      <path
         d="m 99.491007,130.55512 q 0,0.20671 -0.05512,0.62701 -0.04823,0.4203 -0.04823,0.62012 0,0.19292 -0.04134,0.24804 -0.04134,0.0551 -0.227376,0.15848 -0.888834,0.4892 -1.970593,0.4892 -1.991264,0 -1.991264,-1.52273 0,-0.45475 0.03445,-1.36426 0.03445,-0.91639 0.03445,-1.37114 0,-0.30317 -0.3514,-0.30317 -0.02756,0 -0.08957,0 -0.06201,0.007 -0.08957,0.007 -0.261827,0 -0.261827,-0.18604 0,-0.11024 0.01378,-0.33762 0.02067,-0.22737 0.02067,-0.33762 0,-0.14469 -0.02067,-0.44097 -0.01378,-0.29628 -0.01378,-0.44097 0,-0.1378 0.440971,-0.15158 0.248047,-0.007 0.268718,-0.13781 0.04134,-0.26182 0.02756,-0.82682 -0.02756,-0.88883 -0.02756,-0.84749 0,-0.79926 0.151584,-0.79926 0.186035,0 0.530544,0.0827 0.392741,0.0896 0.544325,0.10335 0.351399,0.0482 1.061088,0.13091 0.172255,0.0138 0.172255,0.11714 0,0.2756 -0.04823,0.83371 -0.04134,0.55811 -0.04134,0.8406 0,0.33762 0.199815,0.33762 0.241156,0 0.73036,-0.0207 0.489203,-0.0207 0.73725,-0.0207 0.151584,0 0.151584,0.10335 0,0.15848 -0.03445,0.47543 -0.03445,0.31694 -0.03445,0.47542 0,0.16536 0.0069,0.48231 0.0069,0.31695 0.0069,0.48232 0,0.14469 -0.199815,0.14469 -0.137804,0 -0.461643,-0.007 -0.323838,-0.0138 -0.461642,-0.0138 h -0.516764 q -0.103353,0 -0.103353,0.30317 0,0.16536 0,0.4892 0.0069,0.33073 0.0069,0.4892 0,0.57878 0.130914,0.79926 0.186035,0.29628 0.73036,0.29628 0.172254,0 0.489203,-0.0758 0.323838,-0.0827 0.454752,-0.0827 0.144694,0 0.144694,0.15158 z"
         style="font-style:normal;font-variant:normal;font-weight:normal;font-stretch:normal;font-size:14.1111px;font-family:'Berlin Sans FB Demi';-inkscape-font-specification:'Berlin Sans FB Demi, Normal';font-variant-ligatures:normal;font-variant-caps:normal;font-variant-numeric:normal;font-variant-east-asian:normal;fill:#ffffff;fill-opacity:1"
         id="path858" />
      <path
         d="m 106.52589,128.83258 q 0,0.6959 -0.44787,0.79237 -0.0758,0.0138 -1.42626,0.15158 -0.81305,0.0896 -2.42535,0.2136 0.0965,0.44786 0.58567,0.68213 0.39963,0.19292 0.9095,0.19292 0.61323,0 1.23334,-0.33073 0.26183,-0.16536 0.52366,-0.33073 0.14469,0.0689 0.48231,0.7028 0.34451,0.6339 0.34451,0.80615 0,0.0482 -0.10335,0.15848 -0.8406,0.90261 -2.61138,0.90261 -1.63987,0 -2.64583,-0.95773 -1.033532,-0.97152 -1.033532,-2.5976 0,-1.58475 0.923282,-2.5976 0.95085,-1.04731 2.52181,-1.04731 1.32292,0 2.2462,0.96462 0.92329,0.96463 0.92329,2.29444 z m -2.41157,-0.42031 q 0,-0.42719 -0.30317,-0.75103 -0.30316,-0.32383 -0.72347,-0.32383 -0.43408,0 -0.71658,0.36518 -0.26182,0.33761 -0.26182,0.79237 0,0.18603 0.19292,0.18603 0.50988,0 1.58475,-0.15847 0.22737,-0.0344 0.22737,-0.11025 z"
         style="font-style:normal;font-variant:normal;font-weight:normal;font-stretch:normal;font-size:14.1111px;font-family:'Berlin Sans FB Demi';-inkscape-font-specification:'Berlin Sans FB Demi, Normal';font-variant-ligatures:normal;font-variant-caps:normal;font-variant-numeric:normal;font-variant-east-asian:normal;fill:#ffffff;fill-opacity:1"
         id="path860" />
      <path
         d="m 111.84511,128.0402 q -0.007,0 -0.4203,-0.11024 -0.40652,-0.11024 -0.66146,-0.11024 -0.61322,0 -0.9784,0.37207 -0.36518,0.36518 -0.36518,0.9784 0,0.6339 0.39963,0.99908 0.39963,0.35829 1.04042,0.35829 0.30316,0 0.68212,-0.15158 0.37896,-0.15848 0.35829,-0.15848 0.11714,0 0.30317,0.87506 0.15848,0.79926 0.15848,1.06109 0,0.26182 -0.85439,0.44786 -0.66146,0.14469 -1.06798,0.14469 -1.51584,0 -2.50113,-1.01975 -0.9853,-1.01974 -0.9853,-2.54247 0,-1.50896 0.9853,-2.53559 0.99218,-1.03353 2.50113,-1.03353 1.02664,0 1.80523,0.44097 0.17915,0.0965 0.17915,0.18604 0,0.0896 -0.20671,0.81304 -0.19292,0.69591 -0.25494,0.8406 -0.0551,0.14469 -0.11713,0.14469 z"
         style="font-style:normal;font-variant:normal;font-weight:normal;font-stretch:normal;font-size:14.1111px;font-family:'Berlin Sans FB Demi';-inkscape-font-specification:'Berlin Sans FB Demi, Normal';font-variant-ligatures:normal;font-variant-caps:normal;font-variant-numeric:normal;font-variant-east-asian:normal;fill:#ffffff;fill-opacity:1"
         id="path862" />
      <path
         d="m 118.45969,132.66352 q -0.23427,0 -0.66146,-0.0482 -0.46164,-0.0482 -0.65457,-0.0551 -0.44786,-0.0138 -1.42626,-0.0138 -1.12999,0 -1.59853,0.0276 -0.0965,0.007 -0.48231,0.0413 -0.30317,0.0345 -0.4892,0.0345 -0.12403,0 -0.12403,-0.17226 -0.007,-0.17225 0,-0.46164 0.0138,-0.33762 0.0138,-0.45475 0,-0.13091 -0.0482,-0.38585 -0.0413,-0.25494 -0.0413,-0.37207 0,-0.0896 0.10335,-0.17915 1.4056,-1.19889 2.57693,-2.4529 -0.15847,0 -0.48231,-0.0138 -0.32384,-0.0138 -0.4892,-0.0138 -0.24805,0 -0.75792,0.0276 -0.50299,0.0207 -0.75103,0.0207 -0.11714,0 -0.11714,-0.0827 0,-0.15848 0.2136,-0.92329 0.21359,-0.7717 0.21359,-1.14377 0,-0.11713 0.24116,-0.11713 0.0207,0 0.81993,0.0896 0.66146,0.0689 1.79145,0.0689 0.37207,0 1.10932,-0.0138 0.74414,-0.0138 1.11621,-0.0138 0.22738,0 0.22738,0.19293 v 1.48828 q 0,0.23426 -2.62516,2.79052 2.02571,0 2.75607,-0.1378 0.062,-0.0138 0.0896,-0.0138 0.0965,0 0.0965,0.0758 0,-0.11024 -0.28939,1.08865 -0.0482,0.33073 -0.16537,0.97841 -0.0345,0.14469 -0.16536,0.14469 z"
         style="font-style:normal;font-variant:normal;font-weight:normal;font-stretch:normal;font-size:14.1111px;font-family:'Berlin Sans FB Demi';-inkscape-font-specification:'Berlin Sans FB Demi, Normal';font-variant-ligatures:normal;font-variant-caps:normal;font-variant-numeric:normal;font-variant-east-asian:normal;fill:#ffffff;fill-opacity:1"
         id="path864" />
      <path
         d="m 126.60389,132.37413 q 0,0.18604 -0.19292,0.2136 -0.19293,0.0276 -1.00597,0.0276 -0.86817,0 -1.07487,-0.0413 -0.20671,-0.0413 -0.20671,-0.2825 0,-0.32384 0.0207,-0.97841 0.0207,-0.65456 0.0207,-0.98529 0,-0.25494 -0.0138,-0.75792 -0.0138,-0.50988 -0.0138,-0.76481 0,-0.94396 -0.81993,-0.94396 -0.26872,0 -0.627,0.23427 -0.38586,0.26182 -0.38586,0.51676 v 3.7207 q 0,0.22738 -0.21359,0.25494 -0.24116,0.0276 -0.9853,0.0276 -0.80615,0 -1.04731,-0.0413 -0.21359,-0.0344 -0.21359,-0.22738 0,-0.53743 0.007,-1.61919 0.007,-1.08176 0.007,-1.62609 0,-1.71565 -0.26872,-2.69406 -0.0138,-0.062 -0.0138,-0.10335 0,-0.11025 0.10335,-0.15159 0.43409,-0.0482 1.15756,-0.15158 1.09553,-0.2136 1.23334,-0.2136 0.0758,0 0.11713,0.46854 0.0413,0.46164 0.11713,0.46164 -0.0758,0 0.73725,-0.47542 0.81994,-0.48232 1.43316,-0.48232 0.87506,0 1.46072,0.41341 0.65457,0.47543 0.65457,1.32292 v 2.19797 q 0,0.44786 0.007,1.34359 0.007,0.88883 0.007,1.33669 z"
         style="font-style:normal;font-variant:normal;font-weight:normal;font-stretch:normal;font-size:14.1111px;font-family:'Berlin Sans FB Demi';-inkscape-font-specification:'Berlin Sans FB Demi, Normal';font-variant-ligatures:normal;font-variant-caps:normal;font-variant-numeric:normal;font-variant-east-asian:normal;fill:#ffffff;fill-opacity:1"
         id="path866" />
      <path
         d="m 134.52071,127.66124 q 0,1.3367 -0.0827,1.62609 -0.10335,0.34451 -1.50895,2.49425 -0.22049,0.33761 -1.13688,1.56407 -1.01286,1.35047 -1.15066,1.42627 -0.16537,0.10335 -2.11529,0.10335 -0.29628,0 -0.39963,-0.0689 -0.0896,-0.2825 -0.22738,-0.66835 -0.11024,-0.24116 -0.22048,-0.4892 -0.15848,-0.35829 -0.15848,-0.47543 0,-0.13091 0.11714,-0.13091 1.91547,0 1.91547,-0.87505 0,-0.0758 -0.93707,-1.37115 -0.97151,-1.32981 -1.06798,-1.68121 -0.0551,-0.19981 -0.0551,-1.42626 0,-0.24805 0.0138,-0.74415 0.0138,-0.50298 0.0138,-0.75103 0,-0.17914 0.22738,-0.17914 0.3514,0 1.06109,0.0207 0.71658,0.0207 1.06798,0.0207 0.14469,0 0.14469,0.2136 0,0.19292 -0.0207,0.58566 -0.0207,0.38585 -0.0207,0.57878 0,0.86816 0.0276,1.17822 0.0207,0.24116 0.41341,0.89572 0.41341,0.68213 0.59945,0.68213 0.15847,0 0.53743,-0.67524 0.3514,-0.64078 0.37896,-0.86127 0.0689,-0.60634 0.0689,-1.31602 0,-0.18604 -0.0344,-0.565 -0.0344,-0.37896 -0.0344,-0.57189 0,-0.13091 0.1447,-0.13091 0.3514,0 1.0473,-0.0276 0.7028,-0.0276 1.0542,-0.0276 0.17915,0 0.24116,0.17914 0.0965,0.31695 0.0965,1.46761 z"
         style="font-style:normal;font-variant:normal;font-weight:normal;font-stretch:normal;font-size:14.1111px;font-family:'Berlin Sans FB Demi';-inkscape-font-specification:'Berlin Sans FB Demi, Normal';font-variant-ligatures:normal;font-variant-caps:normal;font-variant-numeric:normal;font-variant-east-asian:normal;fill:#ffffff;fill-opacity:1"
         id="path868" />
    </g>
  </g>
</svg>
