<?xml version="1.0" encoding="UTF-8" standalone="no"?>
<svg
   xmlns:dc="http://purl.org/dc/elements/1.1/"
   xmlns:cc="http://creativecommons.org/ns#"
   xmlns:rdf="http://www.w3.org/1999/02/22-rdf-syntax-ns#"
   xmlns:svg="http://www.w3.org/2000/svg"
   xmlns="http://www.w3.org/2000/svg"
   xmlns:sodipodi="http://sodipodi.sourceforge.net/DTD/sodipodi-0.dtd"
   xmlns:inkscape="http://www.inkscape.org/namespaces/inkscape"
   width="675"
   height="190"
   viewBox="0 0 178.59375 50.270835"
   version="1.1"
   id="svg8"
   inkscape:version="1.0.1 (3bc2e813f5, 2020-09-07)"
   sodipodi:docname="logo-text.svg"
   inkscape:export-filename="C:\Users\Miłosz\Downloads\logo-text.png"
   inkscape:export-xdpi="96"
   inkscape:export-ydpi="96">
  <defs
     id="defs2">
    <rect
       x="48.910324"
       y="115.72771"
       width="120.53856"
       height="25.123337"
       id="rect14" />
    <inkscape:perspective
       sodipodi:type="inkscape:persp3d"
       inkscape:vp_x="0 : 149.83012 : 1"
       inkscape:vp_y="0 : 1000 : 0"
       inkscape:vp_z="209.99999 : 149.83012 : 1"
       inkscape:persp3d-origin="105 : 100.33012 : 1"
       id="perspective34" />
    <rect
       x="48.910324"
       y="115.72771"
       width="120.53856"
       height="25.123337"
       id="rect14-9" />
    <rect
       x="48.910324"
       y="115.72771"
       width="120.53856"
       height="25.123337"
       id="rect850" />
    <rect
       x="48.910324"
       y="115.72771"
       width="120.53856"
       height="25.123337"
       id="rect14-0" />
    <rect
       x="48.910324"
       y="115.72771"
       width="120.53856"
       height="25.123337"
       id="rect850-0" />
    <rect
       x="48.910324"
       y="115.72771"
       width="120.53856"
       height="25.123337"
       id="rect14-4" />
    <rect
       x="48.910324"
       y="115.72771"
       width="120.53856"
       height="25.123337"
       id="rect850-1" />
  </defs>
  <sodipodi:namedview
     id="base"
     pagecolor="#ffffff"
     bordercolor="#666666"
     borderopacity="1.0"
     inkscape:pageopacity="0.0"
     inkscape:pageshadow="2"
     inkscape:zoom="2.7018395"
     inkscape:cx="202.63107"
     inkscape:cy="34.353259"
     inkscape:document-units="mm"
     inkscape:current-layer="layer1"
     inkscape:document-rotation="0"
     showgrid="false"
     inkscape:window-width="3840"
     inkscape:window-height="2050"
     inkscape:window-x="3348"
     inkscape:window-y="-12"
     inkscape:window-maximized="1"
     units="px"
     inkscape:pagecheckerboard="true" />
  <metadata
     id="metadata5">
    <rdf:RDF>
      <cc:Work
         rdf:about="">
        <dc:format>image/svg+xml</dc:format>
        <dc:type
           rdf:resource="http://purl.org/dc/dcmitype/StillImage" />
        <dc:title />
      </cc:Work>
    </rdf:RDF>
  </metadata>
  <g
     inkscape:label="Warstwa 1"
     inkscape:groupmode="layer"
     id="layer1"
     transform="translate(-10.89219,-87.038046)">
    <path
       id="rect900"
       style="opacity:1;fill:#00d1b2;fill-opacity:1;stroke:none;stroke-width:0.036326;stroke-opacity:1"
       d="m 30.636708,87.703074 c -0.03203,-2.54e-4 -0.06376,5.29e-4 -0.09612,0.0021 h -5.29e-4 c -1.035545,0.04808 -1.827464,0.986075 -1.775603,2.103231 l 0.04548,0.976169 c 0.0011,0.0213 0.0027,0.04243 0.0041,0.06356 -0.526989,0.06708 -0.919593,0.525817 -0.894519,1.066086 l 0.799952,17.24029 c -0.232635,0.004 -0.476737,0.005 -0.706416,0.01 -1.630241,-7.28158 -3.521732,-15.824927 -3.521732,-15.824927 -0.280471,-1.363239 -1.342738,-2.21094 -2.668054,-2.169893 -0.189333,0.0057 -0.383839,0.03015 -0.582393,0.07338 -1.590476,0.369607 -2.379441,1.651866 -2.015381,3.216342 l 3.379639,14.874028 c -0.09969,0.005 -0.21328,0.008 -0.311609,0.0124 -1.382067,0.0619 -2.308821,1.33693 -2.251542,2.63963 -5.636016,0.16152 -7.429534,1.69697 -8.30802,6.1035 -0.859481,6.77868 4.10722,12.41434 10.808125,12.08505 0.424302,1.50228 0.817496,2.70804 1.441256,4.35219 0.469264,1.23691 1.67118,1.55225 2.368848,1.72496 5.853238,0.53653 9.280794,0.50296 14.563451,0.0233 1.809917,-0.29381 2.367135,-1.44498 2.488221,-1.72082 2.896659,-6.59897 3.620111,-15.32402 3.685045,-22.72782 -0.0047,-1.19739 -0.596855,-2.26482 -1.969389,-2.55695 l 5.348513,-13.969688 c 0.319127,-0.83222 -0.0448,-1.854372 -0.863513,-2.167826 l -5.910752,-2.262913 c -0.152701,-0.06083 -0.308493,-0.09564 -0.463537,-0.106971 -0.04199,-0.0032 -0.08436,-0.0047 -0.126089,-0.0041 -0.626052,0.0057 -1.213165,0.393411 -1.456243,1.027326 l -6.630604,17.318832 c -0.213974,3e-5 -0.429495,-10e-4 -0.642853,-10e-4 L 33.755897,95.781107 c 0.145912,-0.224941 0.60621,0.0667 0.65474,0.65319 0.174096,1.927537 -0.08134,3.946123 1.322917,5.458073 0.388157,0.41792 0.776182,0.11007 0.776182,0.11007 0.408273,-0.22137 0.174148,-0.82579 0.174148,-0.82579 0,0 -0.486171,-1.29457 -0.562755,-2.871148 -0.0738,-1.519161 1.250468,-3.890404 -0.383955,-5.199166 -1.037093,-0.830439 -1.852613,-0.723352 -2.138371,-0.7059 l -0.03462,-0.748276 c -0.02553,-0.548563 -0.472369,-0.973143 -1.01441,-0.978752 -2.28e-4,-0.02082 -5.29e-4,-0.04108 -0.0016,-0.06201 l -0.04496,-0.976686 c -0.05023,-1.082244 -0.873682,-1.92383 -1.866542,-1.931665 z m 12.393559,4.748548 5.921087,2.266527 -5.544365,14.459071 c -2.211461,-0.0372 -4.486463,-0.0647 -6.775296,-0.0724 0.516673,-1.33392 1.100751,-2.83622 1.530654,-3.95738 l 3.055112,1.16944 0.6258,-1.63556 -3.054077,-1.16944 0.962731,-2.50992 3.053046,1.16892 0.6258,-1.63557 -3.052008,-1.168916 0.962731,-2.509406 3.050458,1.167887 0.626319,-1.636075 -3.049942,-1.167371 z m -21.123258,0.05633 c 0.735168,-0.03628 1.167233,0.417783 1.333252,1.22473 0,0 0.188333,0.851178 0.268201,1.212329 l -2.638082,0.598932 -0.285254,-1.254704 c -0.201069,-0.910548 0.103809,-1.505723 0.98857,-1.735294 0.117529,-0.02556 0.22829,-0.04079 0.333313,-0.04599 z m 10.040731,0.176734 0.762227,16.426904 c -0.801462,0.004 -1.592733,0.0103 -2.374016,0.0196 L 29.577343,92.794231 Z m -4.768701,21.703064 h 3.943944 l 5.348512,10.24847 v -10.21178 h 3.943946 v 16.58297 h -3.943946 l -5.348512,-10.24795 v 10.21178 h -3.943944 z m -8.737451,0.63562 c 1.044919,0.003 1.499372,0.51426 1.872237,1.19734 0.311945,4.31301 0.655891,6.91985 1.207161,9.80974 -5.672251,1.08143 -7.0571,-4.93807 -6.776847,-7.24555 0.250652,-1.79152 1.136674,-3.27333 2.873209,-3.67833 0.310299,-0.0575 0.583103,-0.084 0.82424,-0.0832 z" />
    <text
       xml:space="preserve"
       id="text12"
       style="font-style:normal;font-variant:normal;font-weight:normal;font-stretch:normal;font-size:14.1111px;line-height:1.75;font-family:'Berlin Sans FB Demi';-inkscape-font-specification:'Berlin Sans FB Demi, Normal';font-variant-ligatures:normal;font-variant-caps:normal;font-variant-numeric:normal;font-variant-east-asian:normal;white-space:pre;shape-inside:url(#rect14);fill:#00d1b2;fill-opacity:1;stroke:none;"
       transform="matrix(1.6508455,0,0,1.6508455,-33.331941,-88.082142)"><tspan
         x="48.910156"
         y="132.57395"><tspan
           style="font-style:normal;font-variant:normal;font-weight:normal;font-stretch:normal;font-size:14.1111px;font-family:'Berlin Sans FB Demi';-inkscape-font-specification:'Berlin Sans FB Demi, Normal';font-variant-ligatures:normal;font-variant-caps:normal;font-variant-numeric:normal;font-variant-east-asian:normal;fill:#00d1b2;fill-opacity:1">iedostateczny</tspan></tspan></text>
  </g>
</svg>
