<?xml version="1.0" encoding="UTF-8" standalone="no"?>
<svg
   xmlns:dc="http://purl.org/dc/elements/1.1/"
   xmlns:cc="http://creativecommons.org/ns#"
   xmlns:rdf="http://www.w3.org/1999/02/22-rdf-syntax-ns#"
   xmlns:svg="http://www.w3.org/2000/svg"
   xmlns="http://www.w3.org/2000/svg"
   xmlns:sodipodi="http://sodipodi.sourceforge.net/DTD/sodipodi-0.dtd"
   xmlns:inkscape="http://www.inkscape.org/namespaces/inkscape"
   width="650"
   height="440"
   viewBox="0 0 171.97917 116.41667"
   version="1.1"
   id="svg2442"
   inkscape:version="1.0.1 (3bc2e813f5, 2020-09-07)"
   sodipodi:docname="error.svg">
  <defs
     id="defs2436" />
  <sodipodi:namedview
     id="base"
     pagecolor="#ffffff"
     bordercolor="#666666"
     borderopacity="1.0"
     inkscape:pageopacity="0.0"
     inkscape:pageshadow="2"
     inkscape:zoom="1.4056829"
     inkscape:cx="188.96795"
     inkscape:cy="210.8529"
     inkscape:document-units="px"
     inkscape:current-layer="layer1"
     inkscape:document-rotation="0"
     showgrid="false"
     inkscape:window-width="3360"
     inkscape:window-height="1780"
     inkscape:window-x="-12"
     inkscape:window-y="322"
     inkscape:window-maximized="1"
     units="px"
     inkscape:pagecheckerboard="true"
     fit-margin-top="32"
     fit-margin-left="32"
     fit-margin-right="32"
     fit-margin-bottom="32" />
  <metadata
     id="metadata2439">
    <rdf:RDF>
      <cc:Work
         rdf:about="">
        <dc:format>image/svg+xml</dc:format>
        <dc:type
           rdf:resource="http://purl.org/dc/dcmitype/StillImage" />
        <dc:title></dc:title>
      </cc:Work>
    </rdf:RDF>
  </metadata>
  <g
     inkscape:label="Layer 1"
     inkscape:groupmode="layer"
     id="layer1"
     transform="translate(-19.239491,-57.279602)">
    <g
       id="g846"
       transform="translate(-0.23935979,29.087829)">
      <path
         id="path833-5-2-3-1"
         style="fill:#00d4aa;fill-opacity:1;stroke-width:0.265869;stroke-linecap:round;paint-order:markers stroke fill"
         d="m 63.946232,37.166665 c -6.892129,0.519145 -8.366549,0.486681 -14.964134,2.376506 -8.374239,3.162594 -16.059676,12.714686 -19.544586,24.935756 -3.365732,11.803553 -2.094635,23.594243 2.94191,30.794103 5.216811,6.38932 8.565297,9.73427 10.874987,11.67977 l 2.489315,-6.79315 c 10.592817,0.47289 19.973853,-8.62104 24.381689,-24.07873 4.402433,-15.43974 0.843043,-30.660191 -8.386434,-35.861575 z"
         sodipodi:nodetypes="ccccccccc" />
      <path
         id="path1005-7-9"
         style="fill:#00ba95;fill-opacity:1;stroke:none;stroke-width:0.207371px;stroke-linecap:butt;stroke-linejoin:miter;stroke-opacity:1"
         d="m 69.748359,37.661638 c -12.988038,-3.678314 -28.126162,9.534681 -33.826206,29.524459 -5.704754,20.006393 0.202968,39.227973 13.195225,42.932473 1.569084,0.44738 3.203175,0.65189 4.877841,0.61048 L 77.072436,110.84896 93.354241,51.461862 73.623826,39.336985 C 72.403321,38.609604 71.11604,38.051753 69.776017,37.669527 Z"
         sodipodi:nodetypes="cssccccsc" />
      <ellipse
         style="fill:#009c7d;fill-opacity:1;stroke-width:0.255877;stroke-linecap:round;paint-order:markers stroke fill"
         id="path833-1-42-4-30"
         cx="100.4115"
         cy="54.760269"
         rx="20.359749"
         ry="31.351517"
         transform="rotate(15.915348)" />
      <path
         id="path833-1-4-76-7-4"
         style="fill:#00ba95;fill-opacity:1;stroke-width:0.150299;stroke-linecap:round;paint-order:markers stroke fill"
         d="m 89.337031,63.251673 -0.004,0.0153 c -0.0142,-0.0039 -0.0283,-0.0084 -0.0425,-0.01252 -6.351592,-1.811217 -13.7615,4.649333 -16.55049,14.430037 -2.788895,9.78071 0.09923,19.17772 6.450913,20.9888 0.01416,0.004 0.02858,0.008 0.04274,0.0123 l -0.0041,0.0154 21.242266,6.05717 c 6.37037,-11.56081 9.18874,-23.42394 10.10805,-35.44867 z"
         sodipodi:nodetypes="cccccccccc" />
      <path
         id="path833-1-4-76-7-9-4"
         style="fill:#005342;fill-opacity:1;stroke-width:0.149801;stroke-linecap:round;paint-order:markers stroke fill"
         d="m 97.946561,65.770163 -10.07461,35.331287 13.080219,3.72979 c 6.34932,-11.52258 9.15835,-23.3464 10.07462,-35.331293 z" />
      <path
         id="path833-1-4-2-75-4"
         style="fill:#00d4aa;fill-opacity:1;stroke-width:0.180447;stroke-linecap:round;paint-order:markers stroke fill"
         d="m 104.6105,63.780538 a 14.357994,22.109553 15.915348 0 0 -19.870077,17.324952 14.357994,22.109553 15.915348 0 0 7.744818,25.19924 l -1e-4,3.8e-4 4.38823,1.25293 0.31506,-1.10489 A 14.357994,22.109553 15.915348 0 0 112.35569,88.97993 14.357994,22.109553 15.915348 0 0 108.6828,66.132881 l 0.31326,-1.098565 -4.38481,-1.253596 z m -1.93785,7.188808 A 9.6427061,14.836171 15.915348 0 1 107.87723,87.88098 9.6427061,14.836171 15.915348 0 1 94.536001,99.50433 9.6427061,14.836171 15.915348 0 1 89.331031,82.59258 9.6427061,14.836171 15.915348 0 1 102.67265,70.969346 Z" />
      <path
         id="path833-1-4-2-7-8-8"
         style="fill:#009c7d;fill-opacity:1;stroke-width:0.180447;stroke-linecap:round;paint-order:markers stroke fill"
         d="m 108.99627,65.032107 a 14.357994,22.109554 15.915348 0 0 -19.870059,17.324973 14.357994,22.109554 15.915348 0 0 7.74481,25.19927 14.357994,22.109554 15.915348 0 0 19.870439,-17.32486 14.357994,22.109554 15.915348 0 0 -7.74481,-25.199273 14.357994,22.109554 15.915348 0 1 -3.8e-4,-1.1e-4 z m -2.00269,7.024806 a 9.6142842,14.804821 15.915348 0 1 5.18616,16.873817 9.6142842,14.804821 15.915348 0 1 -13.305649,11.60091 9.6142842,14.804821 15.915348 0 1 -5.18616,-16.8738 9.6142842,14.804821 15.915348 0 1 13.305649,-11.600927 z" />
      <path
         id="path1245-5-0"
         style="fill:#00372c;fill-opacity:1;stroke:none;stroke-width:0.209484px;stroke-linecap:butt;stroke-linejoin:miter;stroke-opacity:1"
         d="m 93.583131,94.06636 c 13.315159,-0.17092 16.752089,0.38978 18.869989,1.54594 3.79463,1.93659 6.1572,6.12201 9.55875,6.8244 10.63263,1.84 20.78527,3.23936 29.86259,2.20754 9.84148,0.23505 10.69498,2.19639 18.06224,2.93722 9.17888,1.24668 13.21394,2.88849 13.42178,6.15181 0.24407,2.5174 -2.12828,2.77843 -6.50862,2.96674 -1.82334,0.13621 -2.86803,1.34857 2.05641,2.70607 6.78896,1.87148 -0.78455,11.67889 -10.85511,9.22529 -6.29093,-1.62887 -11.15939,-2.87845 -9.56653,1.52253 1.60988,4.44796 -20.52064,9.87517 -20.34809,0.23143 -0.1293,-3.5509 -16.66538,1.84734 -20.98747,1.02445 -11.4926,-2.46405 3.87264,-6.88236 -1.45337,-7.62715 -4.34833,-0.59132 -7.46619,0.001 -11.90966,-0.18447 -3.872049,-0.39389 -9.718919,-0.86525 -11.457989,-4.28452 -0.98532,-3.60363 5.13388,-3.34177 8.744689,-4.68571 3.93037,-1.58151 5.43643,-2.54082 5.90121,-6.35369 -0.29062,-2.97509 -2.43015,-5.07825 -5.57604,-6.3581 -4.751219,-1.26933 -7.433969,-4.96129 -7.814779,-7.84978 z"
         sodipodi:nodetypes="cccccccscsccccccccc" />
    </g>
  </g>
</svg>
