<?xml version="1.0" encoding="UTF-8" standalone="no"?>
<svg
   xmlns:dc="http://purl.org/dc/elements/1.1/"
   xmlns:cc="http://creativecommons.org/ns#"
   xmlns:rdf="http://www.w3.org/1999/02/22-rdf-syntax-ns#"
   xmlns:svg="http://www.w3.org/2000/svg"
   xmlns="http://www.w3.org/2000/svg"
   xmlns:sodipodi="http://sodipodi.sourceforge.net/DTD/sodipodi-0.dtd"
   xmlns:inkscape="http://www.inkscape.org/namespaces/inkscape"
   width="600"
   height="600"
   viewBox="0 0 158.75 158.75"
   version="1.1"
   id="svg8"
   inkscape:version="1.0.1 (3bc2e813f5, 2020-09-07)"
   sodipodi:docname="exercise_placeholder.svg">
  <defs
     id="defs2" />
  <sodipodi:namedview
     id="base"
     pagecolor="#ffffff"
     bordercolor="#666666"
     borderopacity="1.0"
     inkscape:pageopacity="0.0"
     inkscape:pageshadow="2"
     inkscape:zoom="3.2841699"
     inkscape:cx="180.70149"
     inkscape:cy="348.95473"
     inkscape:document-units="mm"
     inkscape:current-layer="layer1"
     inkscape:document-rotation="0"
     showgrid="false"
     inkscape:window-width="3840"
     inkscape:window-height="2050"
     inkscape:window-x="3348"
     inkscape:window-y="-12"
     inkscape:window-maximized="1"
     inkscape:pagecheckerboard="true"
     units="px" />
  <metadata
     id="metadata5">
    <rdf:RDF>
      <cc:Work
         rdf:about="">
        <dc:format>image/svg+xml</dc:format>
        <dc:type
           rdf:resource="http://purl.org/dc/dcmitype/StillImage" />
        <dc:title />
      </cc:Work>
    </rdf:RDF>
  </metadata>
  <g
     inkscape:label="Layer 1"
     inkscape:groupmode="layer"
     id="layer1"
     transform="translate(-23.579856,-15.453065)">
    <g
       id="g957"
       transform="translate(3.3487148,11.071004)">
      <g
         id="g1231"
         transform="matrix(0.93860735,0,0,0.93860735,11.722537,-1.0527916)">
        <rect
           style="opacity:1;fill:#00866a;fill-opacity:1;stroke:none;stroke-width:2.1135;stroke-linecap:round;stroke-linejoin:round;stroke-miterlimit:4;stroke-dasharray:none;stroke-opacity:1;paint-order:normal"
           id="rect960"
           width="50.513241"
           height="65.362152"
           x="114.34225"
           y="52.532093"
           transform="matrix(1,0,-0.15906188,0.98726861,0,0)"
           ry="3.5680594" />
        <rect
           style="opacity:1;fill:#0acca0;fill-opacity:1;stroke:none;stroke-width:2.11805;stroke-linecap:round;stroke-linejoin:round;stroke-miterlimit:4;stroke-dasharray:none;stroke-opacity:1;paint-order:normal"
           id="rect958"
           width="50.513241"
           height="65.644371"
           x="96.306404"
           y="52.758904"
           transform="matrix(1,0,0.1834759,0.98302421,0,0)"
           ry="3.5834653" />
        <rect
           style="opacity:1;fill:#72ffdf;fill-opacity:1;stroke:none;stroke-width:2.09177;stroke-linecap:round;stroke-linejoin:round;stroke-miterlimit:4;stroke-dasharray:none;stroke-opacity:1;paint-order:normal"
           id="rect962"
           width="50.513241"
           height="64.026016"
           x="94.796906"
           y="53.28854"
           transform="matrix(1,0,0.24806101,0.96874441,0,0)"
           ry="3.495121" />
        <g
           id="g1356">
          <ellipse
             style="opacity:1;fill:#00614d;fill-opacity:1;stroke:none;stroke-width:0.766155;stroke-linecap:round;stroke-linejoin:round;stroke-miterlimit:4;stroke-dasharray:none;stroke-opacity:1;paint-order:normal"
             id="ellipse976"
             cx="101.93492"
             cy="60.603474"
             rx="1.963569"
             ry="2.0282011"
             transform="matrix(1,0,0.25043547,0.96813329,0,0)" />
          <ellipse
             style="opacity:1;fill:#00614d;fill-opacity:1;stroke:none;stroke-width:1.02154;stroke-linecap:round;stroke-linejoin:round;stroke-miterlimit:4;stroke-dasharray:none;stroke-opacity:1;paint-order:normal"
             id="path964"
             cx="103.88785"
             cy="73.783073"
             rx="2.6180921"
             ry="2.7042682"
             transform="matrix(1,0,0.25043547,0.96813329,0,0)" />
          <ellipse
             style="opacity:1;fill:#00614d;fill-opacity:1;stroke:none;stroke-width:1.02154;stroke-linecap:round;stroke-linejoin:round;stroke-miterlimit:4;stroke-dasharray:none;stroke-opacity:1;paint-order:normal"
             id="circle966"
             cx="103.88785"
             cy="92.366676"
             rx="2.6180921"
             ry="2.7042682"
             transform="matrix(1,0,0.25043547,0.96813329,0,0)" />
          <rect
             style="opacity:1;fill:#00614d;fill-opacity:1;stroke:none;stroke-width:2.84572;stroke-linecap:round;stroke-linejoin:round;stroke-miterlimit:4;stroke-dasharray:none;stroke-opacity:1;paint-order:normal"
             id="rect968"
             width="25.6199"
             height="2.7042682"
             x="110.12279"
             y="72.463829"
             ry="1.3521341"
             transform="matrix(1,0,0.25043547,0.96813329,0,0)" />
          <rect
             style="opacity:1;fill:#00614d;fill-opacity:1;stroke:none;stroke-width:2.56149;stroke-linecap:round;stroke-linejoin:round;stroke-miterlimit:4;stroke-dasharray:none;stroke-opacity:1;paint-order:normal"
             id="rect970"
             width="20.757729"
             height="2.7042682"
             x="110.12279"
             y="91.047447"
             ry="1.3521341"
             transform="matrix(1,0,0.25043547,0.96813329,0,0)" />
          <ellipse
             style="opacity:1;fill:#00614d;fill-opacity:1;stroke:none;stroke-width:1.02154;stroke-linecap:round;stroke-linejoin:round;stroke-miterlimit:4;stroke-dasharray:none;stroke-opacity:1;paint-order:normal"
             id="circle972"
             cx="103.88785"
             cy="83.074867"
             rx="2.6180921"
             ry="2.7042682"
             transform="matrix(1,0,0.25043547,0.96813329,0,0)" />
          <rect
             style="opacity:1;fill:#00614d;fill-opacity:1;stroke:none;stroke-width:2.84572;stroke-linecap:round;stroke-linejoin:round;stroke-miterlimit:4;stroke-dasharray:none;stroke-opacity:1;paint-order:normal"
             id="rect974"
             width="25.6199"
             height="2.7042682"
             x="110.12279"
             y="81.755638"
             ry="1.3521341"
             transform="matrix(1,0,0.25043547,0.96813329,0,0)" />
          <ellipse
             style="opacity:1;fill:#00614d;fill-opacity:1;stroke:none;stroke-width:0.766155;stroke-linecap:round;stroke-linejoin:round;stroke-miterlimit:4;stroke-dasharray:none;stroke-opacity:1;paint-order:normal"
             id="ellipse978"
             cx="113.6647"
             cy="60.603474"
             rx="1.963569"
             ry="2.0282011"
             transform="matrix(1,0,0.25043547,0.96813329,0,0)" />
          <ellipse
             style="opacity:1;fill:#00614d;fill-opacity:1;stroke:none;stroke-width:0.766155;stroke-linecap:round;stroke-linejoin:round;stroke-miterlimit:4;stroke-dasharray:none;stroke-opacity:1;paint-order:normal"
             id="ellipse980"
             cx="125.39449"
             cy="60.603474"
             rx="1.963569"
             ry="2.0282011"
             transform="matrix(1,0,0.25043547,0.96813329,0,0)" />
          <ellipse
             style="opacity:1;fill:#00614d;fill-opacity:1;stroke:none;stroke-width:0.766155;stroke-linecap:round;stroke-linejoin:round;stroke-miterlimit:4;stroke-dasharray:none;stroke-opacity:1;paint-order:normal"
             id="ellipse982"
             cx="137.12427"
             cy="60.603474"
             rx="1.963569"
             ry="2.0282011"
             transform="matrix(1,0,0.25043547,0.96813329,0,0)" />
        </g>
        <g
           id="g1086"
           style="fill:#00866a;fill-opacity:1">
          <path
             id="path1012"
             style="opacity:1;fill:#00866a;fill-opacity:1;stroke:none;stroke-width:2.5259;stroke-linecap:round;stroke-linejoin:round;stroke-miterlimit:4;stroke-dasharray:none;stroke-opacity:1;paint-order:normal"
             d="m 115.89791,40.700826 c -1.92941,0.03637 -3.40954,1.821997 -4.22423,3.647323 -1.13952,2.556434 -1.45176,5.499598 -1.18015,8.331274 h 3.74294 c -0.19209,-2.210509 -0.11886,-4.499075 0.59236,-6.584095 0.22187,-0.559226 0.59806,-1.382461 1.24871,-1.261422 0.76074,0.322313 1.0002,1.348025 1.23363,2.134753 0.57698,2.566633 0.5782,5.316482 -0.0133,7.880141 -0.22596,0.760347 -0.28278,1.596751 -0.98597,1.955468 -0.49664,0.262045 -0.35154,1.422576 -0.0943,1.955719 0.37678,0.78071 1.48826,1.812092 2.70464,0.707136 1.99432,-2.445258 2.63462,-5.933543 2.55959,-9.172567 -0.11927,-3.008987 -0.87,-6.225608 -2.87771,-8.341611 -0.73867,-0.75053 -1.69917,-1.270238 -2.70631,-1.252119 z"
             sodipodi:nodetypes="cccccccccsccccc" />
          <path
             id="path1017"
             style="opacity:1;fill:#00866a;fill-opacity:1;stroke:none;stroke-width:2.5259;stroke-linecap:round;stroke-linejoin:round;stroke-miterlimit:4;stroke-dasharray:none;stroke-opacity:1;paint-order:normal"
             d="m 127.54057,40.700826 c -1.92941,0.03637 -3.40953,1.821997 -4.22423,3.647323 -1.13951,2.556434 -1.45175,5.499598 -1.18015,8.331274 h 3.74294 c -0.19209,-2.210509 -0.11885,-4.499075 0.59237,-6.584095 0.22186,-0.559226 0.59805,-1.382461 1.2487,-1.261422 0.76075,0.322313 1.00021,1.348025 1.23364,2.134753 0.57697,2.566633 0.57819,5.316482 -0.0133,7.880141 -0.22596,0.760347 -0.28278,1.596751 -0.98596,1.955468 -0.49665,0.262045 -0.35155,1.422576 -0.0943,1.955719 0.37677,0.78071 1.48826,1.812092 2.70464,0.707136 1.99431,-2.445258 2.63462,-5.933543 2.55959,-9.172567 -0.11928,-3.008987 -0.87,-6.225608 -2.87772,-8.341611 -0.73866,-0.75053 -1.69916,-1.270238 -2.7063,-1.252119 z"
             sodipodi:nodetypes="cccccccccsccccc" />
          <path
             id="path1021"
             style="opacity:1;fill:#00866a;fill-opacity:1;stroke:none;stroke-width:2.5259;stroke-linecap:round;stroke-linejoin:round;stroke-miterlimit:4;stroke-dasharray:none;stroke-opacity:1;paint-order:normal"
             d="m 139.18323,40.700826 c -1.92941,0.03637 -3.40954,1.821997 -4.22423,3.647323 -1.13952,2.556434 -1.45176,5.499598 -1.18015,8.331274 h 3.74294 c -0.19209,-2.210509 -0.11886,-4.499075 0.59236,-6.584095 0.22187,-0.559226 0.59806,-1.382461 1.24871,-1.261422 0.76074,0.322313 1.0002,1.348025 1.23363,2.134753 0.57698,2.566633 0.5782,5.316482 -0.0133,7.880141 -0.22596,0.760347 -0.28278,1.596751 -0.98597,1.955468 -0.49664,0.262045 -0.35154,1.422576 -0.0942,1.955719 0.37678,0.78071 1.48826,1.812092 2.70464,0.707136 1.99432,-2.445258 2.63462,-5.933543 2.55959,-9.172567 -0.11927,-3.008987 -0.87,-6.225608 -2.87771,-8.341611 -0.73867,-0.75053 -1.69917,-1.270238 -2.70631,-1.252119 z"
             sodipodi:nodetypes="cccccccccsccccc" />
          <path
             id="path1023"
             style="opacity:1;fill:#00866a;fill-opacity:1;stroke:none;stroke-width:2.5259;stroke-linecap:round;stroke-linejoin:round;stroke-miterlimit:4;stroke-dasharray:none;stroke-opacity:1;paint-order:normal"
             d="m 150.8259,40.700826 c -1.92941,0.03637 -3.40954,1.821997 -4.22423,3.647323 -1.13952,2.556434 -1.45176,5.499598 -1.18015,8.331274 h 3.74294 c -0.19209,-2.210509 -0.11886,-4.499075 0.59236,-6.584095 0.22187,-0.559226 0.59806,-1.382461 1.24871,-1.261422 0.76074,0.322313 1.0002,1.348025 1.23363,2.134753 0.57698,2.566633 0.5782,5.316482 -0.0133,7.880141 -0.22596,0.760347 -0.28278,1.596751 -0.98597,1.955468 -0.49664,0.262045 -0.35154,1.422576 -0.0942,1.955719 0.37678,0.78071 1.48826,1.812092 2.70464,0.707136 1.99432,-2.445258 2.63462,-5.933543 2.55959,-9.172567 -0.11927,-3.008987 -0.87,-6.225608 -2.87771,-8.341611 -0.73867,-0.75053 -1.69917,-1.270238 -2.70631,-1.252119 z"
             sodipodi:nodetypes="cccccccccsccccc" />
        </g>
        <path
           id="rect1041"
           style="opacity:1;fill:#72ffdf;fill-opacity:1;stroke:none;stroke-width:2.97123;stroke-linecap:round;stroke-linejoin:round;stroke-miterlimit:4;stroke-dasharray:none;stroke-opacity:1;paint-order:normal"
           d="m 109.91761,52.065231 c 0.57691,-0.386147 1.00905,-0.42484 1.43311,-0.444141 h 3.3393 v 2.914702 h -4.72566 z"
           sodipodi:nodetypes="cccccc" />
        <rect
           style="fill:#72ffdf;fill-opacity:1;stroke:none;stroke-width:2.87128;stroke-linecap:round;stroke-linejoin:round;stroke-miterlimit:4;stroke-dasharray:none;stroke-opacity:1;paint-order:normal"
           id="rect1041-7"
           width="4.4130902"
           height="2.9147017"
           x="121.56703"
           y="51.62109"
           ry="0" />
        <rect
           style="fill:#72ffdf;fill-opacity:1;stroke:none;stroke-width:2.87925;stroke-linecap:round;stroke-linejoin:round;stroke-miterlimit:4;stroke-dasharray:none;stroke-opacity:1;paint-order:normal"
           id="rect1041-5"
           width="4.437604"
           height="2.9147017"
           x="133.36159"
           y="51.62109"
           ry="0" />
        <rect
           style="fill:#72ffdf;fill-opacity:1;stroke:none;stroke-width:2.85783;stroke-linecap:round;stroke-linejoin:round;stroke-miterlimit:4;stroke-dasharray:none;stroke-opacity:1;paint-order:normal"
           id="rect1041-3"
           width="4.3718419"
           height="2.9147017"
           x="145.24638"
           y="51.62109"
           ry="0" />
      </g>
      <path
         id="rect946"
         style="opacity:1;fill:#00bc82;fill-opacity:1;stroke:#00bc82;stroke-width:6.3;stroke-linecap:round;stroke-linejoin:round;stroke-miterlimit:4;stroke-dasharray:none;stroke-opacity:1;paint-order:markers stroke fill"
         d="m 45.991286,102.85362 100.310564,-0.18701 26.18092,32.53909 c -22.74666,-0.0267 -58.18316,-5.70684 -68.33242,0 h -9.537355 c -3.688233,-7.41113 -43.860764,-0.5458 -67.883386,0 z"
         sodipodi:nodetypes="ccccccc" />
      <path
         id="rect833"
         style="fill:#00bc96;fill-opacity:1;stroke:none;stroke-width:0.322178;stroke-linecap:round;stroke-opacity:1;paint-order:markers stroke fill"
         d="m 60.798355,47.559637 c -13.803468,0.01095 -24.971847,3.042496 -24.971442,6.77823 -1.324296,25.295803 0.944273,34.980555 5.799557,51.214033 h 38.514005 c 4.465977,-17.602138 6.50832,-23.061236 5.776247,-51.214033 4.26e-4,-3.743506 -11.212865,-6.77826 -25.045111,-6.77823 z"
         sodipodi:nodetypes="cccccsc" />
      <ellipse
         style="opacity:1;fill:#00765e;fill-opacity:1;stroke:none;stroke-width:0.375114;stroke-linecap:round;paint-order:markers stroke fill"
         id="path836"
         cx="60.607994"
         cy="54.496143"
         rx="20.100166"
         ry="4.4433956" />
      <path
         style="fill:#00bc96;fill-opacity:1;stroke:none;stroke-width:0.213107px;stroke-linecap:butt;stroke-linejoin:miter;stroke-opacity:1"
         d="m 85.629847,61.050223 c 12.789269,-0.865148 15.203893,4.839281 15.835313,9.490202 1.11262,8.195284 -3.386562,17.175156 -11.174201,20.762424 -4.665867,2.149268 -7.320648,2.217074 -7.320648,2.217074 l 1.410433,-7.750462 c 5.257622,0.857833 9.921919,-4.008894 11.335532,-8.8098 1.107519,-4.361113 -0.450019,-8.634411 -3.37546,-9.440844 -3.075726,-0.84787 -7.100447,0.2168 -7.100447,0.2168 z"
         id="path843"
         sodipodi:nodetypes="csscccscc" />
      <path
         id="path938"
         style="fill:#00bc96;fill-opacity:1;stroke:none;stroke-width:0.52925;stroke-linecap:round;stroke-opacity:1;paint-order:markers stroke fill"
         d="m 33.020524,18.746836 a 1.3312375,3.5790381 71.663035 0 0 -2.970216,2.383273 1.3312375,3.5790381 71.663035 0 0 0.0025,0.007 l 19.586665,57.70005 6.792288,-2.258721 -19.586712,-57.699967 a 1.3312375,3.5790381 71.663035 0 0 -0.0025,-0.007 1.3312375,3.5790381 71.663035 0 0 -3.822074,-0.124552 z" />
      <ellipse
         style="fill:#00aad4;fill-opacity:1;stroke:none;stroke-width:0.39783;stroke-linecap:round;paint-order:markers stroke fill"
         id="ellipse940"
         cx="25.242804"
         cy="38.935493"
         rx="3.5790269"
         ry="1.3312675"
         transform="matrix(0.94890832,-0.31555191,0.3214426,0.94692907,0,0)" />
      <path
         id="path942"
         style="fill:#00866a;fill-opacity:1;stroke:none;stroke-width:0.600838;stroke-linecap:round;paint-order:markers stroke fill"
         d="m 34.853931,24.146565 c -2.121333,0.705493 -3.62812,1.914524 -3.371971,2.70564 8.76e-4,0.0026 0.0017,0.0054 0.0028,0.0081 l 1.532875,4.51567 c 0.490124,0.615976 2.282537,0.6281 4.236405,-0.01 2.125211,-0.693998 3.63833,-1.894974 3.386484,-2.687439 -8.45e-4,-0.0026 -0.0018,-0.0054 -0.0028,-0.0081 l -1.467695,-4.427333 c -0.338148,-0.739299 -2.237538,-0.787863 -4.316144,-0.09657 z"
         sodipodi:nodetypes="csccsscccc" />
      <path
         id="path944"
         style="fill:#60ffd4;fill-opacity:1;stroke:none;stroke-width:0.52925;stroke-linecap:round;paint-order:markers stroke fill"
         d="m 33.020534,18.746869 c -1.868587,0.621437 -3.195843,1.686416 -2.970214,2.383273 7.76e-4,0.0023 0.0015,0.0048 0.0025,0.007 l 1.765094,5.199755 c 0.431725,0.542584 2.010577,0.553266 3.731651,-0.0088 1.872004,-0.611313 3.204837,-1.669195 2.983,-2.367243 -7.57e-4,-0.0023 -0.0015,-0.0048 -0.0025,-0.007 L 36.822436,18.831928 C 36.52457,18.180715 34.85149,18.137936 33.020542,18.746867 Z" />
      <path
         id="rect951"
         style="opacity:1;fill:#aeffe3;fill-opacity:1;stroke:#aeffe3;stroke-width:1.6;stroke-linecap:round;stroke-linejoin:round;stroke-miterlimit:4;stroke-dasharray:none;stroke-opacity:1;paint-order:normal"
         d="m 45.991286,101.26612 c 17.905686,-0.0334 32.559904,-20.794881 53.717059,-0.10015 15.813415,-9.05961 30.565625,-1.0959 46.064335,-0.0869 l 25.65176,32.00993 c -23.39405,0.0371 -52.72538,-7.13308 -67.21777,0.21618 0,0 0,0 -7.481047,0.10306 -7.670751,-11.82295 -46.092633,1.42717 -69.466847,-0.3192 z"
         sodipodi:nodetypes="ccccsccc" />
      <path
         id="path1161"
         style="fill:#82e9cd;fill-opacity:1;stroke:none;stroke-width:1.03113;stroke-linecap:round;stroke-linejoin:round;stroke-miterlimit:4;stroke-dasharray:none;stroke-opacity:1;paint-order:normal"
         inkscape:transform-center-x="-0.82270693"
         inkscape:transform-center-y="-2.6412244"
         d="m 85.276852,26.568301 c -0.628225,2.344167 -7.130302,0.488991 -6.746816,-1.543223 l 4.827733,-7.353225 c 0.270237,-0.433106 0.756811,-0.235309 0.813158,0.186545 z"
         sodipodi:nodetypes="ccccc" />
      <path
         id="rect1154"
         style="fill:#00bc96;fill-opacity:1;stroke:none;stroke-width:0.511604;stroke-linecap:round;stroke-opacity:1;paint-order:markers stroke fill"
         d="m 85.276854,26.568301 a 3.4596949,1.2868552 13.119676 0 1 -0.0097,0.03276 3.4596949,1.2868552 13.119676 0 1 -0.01175,0.03279 3.4596949,1.2868552 13.119676 0 1 -0.01358,0.03185 3.4596949,1.2868552 13.119676 0 1 -0.01662,0.03165 3.4596949,1.2868552 13.119676 0 1 -0.01835,0.03074 3.4596949,1.2868552 13.119676 0 1 -0.02079,0.03017 3.4596949,1.2868552 13.119676 0 1 -0.02332,0.02958 3.4596949,1.2868552 13.119676 0 1 -0.02574,0.0285 3.4596949,1.2868552 13.119676 0 1 -0.02827,0.02791 3.4596949,1.2868552 13.119676 0 1 -0.03011,0.02697 3.4596949,1.2868552 13.119676 0 1 -0.03215,0.02649 3.4596949,1.2868552 13.119676 0 1 -0.03517,0.02579 3.4596949,1.2868552 13.119676 0 1 -0.0371,0.02483 3.4596949,1.2868552 13.119676 0 1 -0.03901,0.02377 3.4596949,1.2868552 13.119676 0 1 -0.04145,0.0232 3.4596949,1.2868552 13.119676 0 1 -0.04338,0.02223 3.4596949,1.2868552 13.119676 0 1 -0.0458,0.02116 3.4596949,1.2868552 13.119676 0 1 -0.04784,0.02068 3.4596949,1.2868552 13.119676 0 1 -0.04956,0.01925 3.4596949,1.2868552 13.119676 0 1 -0.05161,0.01877 3.4596949,1.2868552 13.119676 0 1 -0.05403,0.0177 3.4596949,1.2868552 13.119676 0 1 -0.05535,0.01677 3.4596949,1.2868552 13.119676 0 1 -0.05777,0.0157 3.4596949,1.2868552 13.119676 0 1 -0.05922,0.01485 3.4596949,1.2868552 13.119676 0 1 -0.06154,0.01379 3.4596949,1.2868552 13.119676 0 1 -0.06287,0.01245 3.4596949,1.2868552 13.119676 0 1 -0.06489,0.01188 3.4596949,1.2868552 13.119676 0 1 -0.06612,0.01057 3.4596949,1.2868552 13.119676 0 1 -0.06817,0.01009 3.4596949,1.2868552 13.119676 0 1 -0.06929,0.0083 3.4596949,1.2868552 13.119676 0 1 -0.07134,0.0078 3.4596949,1.2868552 13.119676 0 1 -0.07255,0.0064 3.4596949,1.2868552 13.119676 0 1 -0.07399,0.0055 3.4596949,1.2868552 13.119676 0 1 -0.07544,0.0047 3.4596949,1.2868552 13.119676 0 1 -0.07667,0.0034 3.4596949,1.2868552 13.119676 0 1 -0.07753,0.0027 3.4596949,1.2868552 13.119676 0 1 -0.07933,0.0011 3.4596949,1.2868552 13.119676 0 1 -0.08019,4.1e-4 3.4596949,1.2868552 13.119676 0 1 -0.08152,-9.27e-4 3.4596949,1.2868552 13.119676 0 1 -0.08238,-0.0016 3.4596949,1.2868552 13.119676 0 1 -0.08369,-0.0031 3.4596949,1.2868552 13.119676 0 1 -0.08406,-0.0037 3.4596949,1.2868552 13.119676 0 1 -0.08529,-0.005 3.4596949,1.2868552 13.119676 0 1 -0.08563,-0.0062 3.4596949,1.2868552 13.119676 0 1 -0.08697,-0.007 3.4596949,1.2868552 13.119676 0 1 -0.08724,-0.0081 3.4596949,1.2868552 13.119676 0 1 -0.08798,-0.0093 3.4596949,1.2868552 13.119676 0 1 -0.08843,-0.01004 3.4596949,1.2868552 13.119676 0 1 -0.08911,-0.01153 3.4596949,1.2868552 13.119676 0 1 -0.08937,-0.01261 3.4596949,1.2868552 13.119676 0 1 -0.08963,-0.0137 3.4596949,1.2868552 13.119676 0 1 -0.09012,-0.01382 3.4596949,1.2868552 13.119676 0 1 -0.08989,-0.01479 3.4596949,1.2868552 13.119676 0 1 -0.09073,-0.01601 3.4596949,1.2868552 13.119676 0 1 -0.09051,-0.01699 3.4596949,1.2868552 13.119676 0 1 -0.09077,-0.01807 3.4596949,1.2868552 13.119676 0 1 -0.09054,-0.01905 3.4596949,1.2868552 13.119676 0 1 -0.09031,-0.02002 3.4596949,1.2868552 13.119676 0 1 -0.0605,-0.01358 3.4596949,1.2868552 13.119676 0 1 -0.08997,-0.02149 3.4596949,1.2868552 13.119676 0 1 -0.08963,-0.02294 3.4596949,1.2868552 13.119676 0 1 -0.08963,-0.02294 3.4596949,1.2868552 13.119676 0 1 -0.08869,-0.02478 3.4596949,1.2868552 13.119676 0 1 -0.08869,-0.02478 3.4596949,1.2868552 13.119676 0 1 -0.08846,-0.02575 3.4596949,1.2868552 13.119676 0 1 -0.08726,-0.0265 3.4596949,1.2868552 13.119676 0 1 -0.08694,-0.02745 3.4596949,1.2868552 13.119676 0 1 -0.08574,-0.0282 3.4596949,1.2868552 13.119676 0 1 -0.08551,-0.02917 3.4596949,1.2868552 13.119676 0 1 -0.08431,-0.02992 3.4596949,1.2868552 13.119676 0 1 -0.08375,-0.0301 3.4596949,1.2868552 13.119676 0 1 -0.08243,-0.03092 3.4596949,1.2868552 13.119676 0 1 -0.08183,-0.03129 3.4596949,1.2868552 13.119676 0 1 -0.08063,-0.03204 3.4596949,1.2868552 13.119676 0 1 -0.07934,-0.03276 3.4596949,1.2868552 13.119676 0 1 -0.07811,-0.03361 3.4596949,1.2868552 13.119676 0 1 -0.07702,-0.03387 3.4596949,1.2868552 13.119676 0 1 -0.07524,-0.03448 3.4596949,1.2868552 13.119676 0 1 -0.07462,-0.03495 3.4596949,1.2868552 13.119676 0 1 -0.07293,-0.03558 3.4596949,1.2868552 13.119676 0 1 -0.07126,-0.03571 3.4596949,1.2868552 13.119676 0 1 -0.07005,-0.03645 3.4596949,1.2868552 13.119676 0 1 -0.06787,-0.03656 3.4596949,1.2868552 13.119676 0 1 -0.06716,-0.03742 3.4596949,1.2868552 13.119676 0 1 -0.065,-0.03743 3.4596949,1.2868552 13.119676 0 1 -0.06343,-0.03758 3.4596949,1.2868552 13.119676 0 1 -0.06113,-0.03817 3.4596949,1.2868552 13.119676 0 1 -0.06004,-0.03843 3.4596949,1.2868552 13.119676 0 1 -0.05788,-0.03844 3.4596949,1.2868552 13.119676 0 1 -0.0562,-0.03908 3.4596949,1.2868552 13.119676 0 1 -0.05404,-0.03909 3.4596949,1.2868552 13.119676 0 1 -0.05244,-0.03933 3.4596949,1.2868552 13.119676 0 1 -0.0498,-0.03923 3.4596949,1.2868552 13.119676 0 1 -0.04812,-0.03935 3.4596949,1.2868552 13.119676 0 1 -0.04655,-0.0395 3.4596949,1.2868552 13.119676 0 1 -0.0439,-0.03939 3.4596949,1.2868552 13.119676 0 1 -0.04163,-0.03989 3.4596949,1.2868552 13.119676 0 1 -0.03956,-0.03951 3.4596949,1.2868552 13.119676 0 1 -0.0375,-0.03955 3.4596949,1.2868552 13.119676 0 1 -0.03534,-0.03956 3.4596949,1.2868552 13.119676 0 1 -0.03319,-0.03957 3.4596949,1.2868552 13.119676 0 1 -0.03075,-0.039 3.4596949,1.2868552 13.119676 0 1 -0.02859,-0.03901 3.4596949,1.2868552 13.119676 0 1 -0.02595,-0.0389 3.4596949,1.2868552 13.119676 0 1 -0.02376,-0.03901 3.4596949,1.2868552 13.119676 0 1 -0.02123,-0.03842 3.4596949,1.2868552 13.119676 0 1 -0.01917,-0.03845 3.4596949,1.2868552 13.119676 0 1 -0.01664,-0.03787 3.4596949,1.2868552 13.119676 0 1 -0.01448,-0.03788 3.4596949,1.2868552 13.119676 0 1 -0.01205,-0.03731 3.4596949,1.2868552 13.119676 0 1 -0.0095,-0.03672 3.4596949,1.2868552 13.119676 0 1 -0.0069,-0.03662 3.4596949,1.2868552 13.119676 0 1 -0.0048,-0.03614 3.4596949,1.2868552 13.119676 0 1 -0.0023,-0.03555 3.4596949,1.2868552 13.119676 0 1 6.2e-5,-0.03551 3.4596949,1.2868552 13.119676 0 1 0.0019,-0.03457 3.4596949,1.2868552 13.119676 0 1 0.0049,-0.03438 3.4596949,1.2868552 13.119676 0 1 0.0047,-0.02222 l -13.369693,57.36359 6.738732,1.570591 z" />
      <path
         id="path1172"
         style="fill:#00bc96;fill-opacity:1;stroke:none;stroke-width:1.27316;stroke-linecap:round;stroke-linejoin:round;stroke-miterlimit:4;stroke-dasharray:none;stroke-opacity:1;paint-order:normal"
         inkscape:transform-center-x="-1.015811"
         inkscape:transform-center-y="-3.2608821"
         d="m 82.32035,19.2479 c 0.110427,0.494637 1.672232,0.983351 2.083675,0.474757 l -0.239686,-1.891353 c -0.08472,-0.469423 -0.538275,-0.559043 -0.788411,-0.184053 l -1.055761,1.601438 z"
         sodipodi:nodetypes="cccccc" />
      <path
         style="fill:#00866a;fill-opacity:1;stroke:none;stroke-width:0.264583px;stroke-linecap:butt;stroke-linejoin:miter;stroke-opacity:1"
         d="m 48.561607,24.145375 c -3.23702,2.093933 -0.796656,6.981285 -0.195501,9.088048 0.601155,2.106763 0.300859,7.446226 1.712972,8.860943 1.412113,1.414718 2.779281,-0.425785 2.779281,-0.425785 -0.607329,-5.719699 -1.79886,-12.07735 -4.296752,-17.523206 z"
         id="path1319"
         sodipodi:nodetypes="csscc" />
      <path
         id="path1321"
         style="fill:#00bc96;fill-opacity:1;stroke:none;stroke-width:0.511604;stroke-linecap:round;stroke-opacity:1;paint-order:markers stroke fill"
         d="m 55.930887,25.192052 c -2.721215,-2.451494 -5.97108,-1.470393 -6.677782,1.285144 2.16004,13.853992 4.277823,28.23928 6.437865,42.093275 -0.18936,-1.1449 1.423093,-2.426558 2.947238,-2.673622 1.517167,-0.244969 3.663931,0.168888 3.886704,1.578916 l -0.137879,-0.88059 C 60.234915,52.794136 58.083005,38.99308 55.930887,25.192052 Z"
         sodipodi:nodetypes="ccccccc" />
      <path
         style="fill:#0acca0;fill-opacity:1;stroke:none;stroke-width:0.272866px;stroke-linecap:butt;stroke-linejoin:miter;stroke-opacity:1"
         d="m 49.727748,21.818026 4.323549,-1.138382 -0.906479,-3.876761 c -0.574299,-2.368158 -4.495739,-1.329258 -4.103408,0.87583 z"
         id="path1327"
         sodipodi:nodetypes="ccccc" />
      <path
         style="fill:#00866a;fill-opacity:1;stroke:none;stroke-width:0.264583px;stroke-linecap:butt;stroke-linejoin:miter;stroke-opacity:1"
         d="m 49.730343,29.586994 c -0.353698,-2.589472 5.557952,-4.034099 6.733392,-1.123041 0.855366,-0.75921 -0.919138,-8.158389 -1.458979,-8.665343 -1.804599,-1.610938 -5.595942,-0.784556 -6.563353,1.599567 -0.377571,0.904639 0.08416,7.976681 1.28894,8.188817"
         id="path1329"
         sodipodi:nodetypes="ccccc" />
      <path
         id="rect1098"
         style="opacity:1;fill:#caffed;fill-opacity:1;stroke:none;stroke-width:1.73371;stroke-linecap:round;stroke-linejoin:bevel;stroke-miterlimit:4;stroke-dasharray:none;stroke-opacity:1;paint-order:normal"
         d="m 43.031489,65.659728 c -0.704984,-0.121921 -1.304587,0.547798 -1.291906,1.228077 0.23029,12.353836 0.951152,21.260088 1.587501,26.1862 0.08717,0.674792 0.591895,1.080251 1.291906,1.228078 l 4.78687,1.010881 c 0.700012,0.147827 1.379659,-0.553363 1.291906,-1.228078 -0.70712,-5.436916 -0.823813,-10.283405 -1.058334,-15.247722 2.662149,5.304409 6.235377,10.455689 9.751521,15.776889 0.523373,0.639672 1.504763,1.272758 2.058991,1.228078 1.701811,0.01145 3.403613,0.03095 5.105394,0.04745 h 0.210643 c 0.715758,0 1.274406,-0.547904 1.291903,-1.228078 0.211134,-8.207556 0.482396,-15.513196 0.529167,-26.1862 0.003,-0.68039 -0.576477,-1.222751 -1.291903,-1.228077 l -6.374371,-0.04745 c -0.71543,-0.0053 -1.317095,0.548146 -1.291907,1.228078 l 0.529167,14.284294 C 56.956205,78.412899 53.971916,73.025935 50.935684,67.898686 50.651048,67.442952 50.102446,67.051304 49.52137,66.839331 49.331174,66.734823 49.109487,66.710868 48.876693,66.670608 Z"
         sodipodi:nodetypes="ssssssccccsssssscccss" />
      <path
         id="path956"
         style="opacity:1;fill:#52ffcc;fill-opacity:1;stroke:#52ffcc;stroke-width:1.6;stroke-linecap:round;stroke-linejoin:round;stroke-miterlimit:4;stroke-dasharray:none;stroke-opacity:1;paint-order:normal"
         d="m 48.900425,99.811313 c 17.905686,-0.0334 30.179931,-20.398407 51.337085,0.296327 15.8134,-9.059613 26.86145,-1.62507 42.36016,-0.616067 l 25.1226,31.480757 c -23.39405,0.0371 -53.73932,-9.54295 -64.74313,0.82751 l -4.664016,0.0209 C 90.90684,116.77183 54.203763,130.7917 30.829549,130.57613 Z"
         sodipodi:nodetypes="cccccccc" />
      <path
         style="fill:#00614d;fill-opacity:1;stroke:none;stroke-width:0.264583px;stroke-linecap:butt;stroke-linejoin:miter;stroke-opacity:1"
         d="m 50.70941,106.85019 c 13.130977,1.53819 32.600868,-17.845365 43.601578,-3.69291 0.572887,0.73182 0.81106,-1.12682 -0.109546,-2.22529 -11.714999,-13.978167 -30.630447,5.2911 -42.614759,4.02819 -1.206557,-0.0894 -1.84383,1.79264 -0.877273,1.89001 z"
         id="path1122-8"
         sodipodi:nodetypes="ccccc" />
      <path
         style="fill:#00614d;fill-opacity:1;stroke:none;stroke-width:0.264583px;stroke-linecap:butt;stroke-linejoin:miter;stroke-opacity:1"
         d="m 48.063577,112.67106 c 15.242821,2.71832 34.464411,-15.82511 45.718244,-3.69291 0.572887,0.73182 0.81106,-1.12682 -0.109546,-2.22529 -11.231131,-12.70377 -30.48367,6.55339 -44.731425,4.02819 -1.206557,-0.0894 -1.84383,1.79264 -0.877273,1.89001 z"
         id="path1148"
         sodipodi:nodetypes="ccccc" />
      <path
         style="fill:#00bc96;fill-opacity:1;stroke:#00bc96;stroke-width:0.264583px;stroke-linecap:butt;stroke-linejoin:miter;stroke-opacity:1"
         d="m 108.11964,119.02342 c 11.35382,-2.02336 26.42549,-0.61265 40.58506,0.75429 l -9.06982,-15.5683 c -11.54034,3.72672 -26.49582,6.4422 -32.04441,13.75568"
         id="path1152"
         sodipodi:nodetypes="cccc" />
      <path
         style="fill:#00614d;fill-opacity:1;stroke:none;stroke-width:0.264583px;stroke-linecap:butt;stroke-linejoin:miter;stroke-opacity:1"
         d="m 106.80201,121.1742 c 11.22815,-6.59943 31.00062,-0.3657 43.63402,-0.0327 1.46788,0.053 0.4229,-2.07193 -1.32303,-2.22529 -13.12871,-0.71566 -32.34156,-5.25189 -40.99336,-0.42194 l -1.65641,-16.46447 c -0.10549,-1.0338 -1.77718,0.12974 -1.71905,0.8633 l 1.12221,18.05051 c 0.0255,0.88713 0.93562,0.2306 0.93562,0.2306 z"
         id="path1122"
         sodipodi:nodetypes="cccccccc" />
      <path
         style="fill:#00614d;fill-opacity:1;stroke:none;stroke-width:0.264583px;stroke-linecap:butt;stroke-linejoin:miter;stroke-opacity:1"
         d="m 108.11964,117.96509 v 1.05833 c 11.50194,-11.0262 20.63927,-9.9392 32.23352,-14.24594 0.71377,-0.30269 -0.0422,-1.32267 -1.05024,-1.01622 -11.02505,3.79756 -21.75807,3.61707 -31.96039,13.80713"
         id="path1150"
         sodipodi:nodetypes="ccccc" />
      <path
         style="fill:#00614d;fill-opacity:1;stroke:#00614d;stroke-width:1.26345;stroke-linecap:butt;stroke-linejoin:round;stroke-miterlimit:4;stroke-dasharray:none;stroke-opacity:1"
         d="m 60.525507,119.0924 c 4.965085,-0.54623 9.532541,-3.19118 14.40511,-4.47754 l -3.008566,-0.0661 -0.244885,2.98348 3.253451,-2.91734"
         id="path1207"
         sodipodi:nodetypes="ccccc" />
      <path
         style="fill:#00bc96;fill-opacity:1;stroke:#00bc96;stroke-width:1.20976;stroke-linecap:butt;stroke-linejoin:round;stroke-miterlimit:4;stroke-dasharray:none;stroke-opacity:1"
         d="m 46.013665,123.30839 c 5.410458,0.0378 9.626835,-0.63722 14.423001,-1.31079 l 1.35934,-6.26267 c -4.847709,1.16914 -7.86614,1.65931 -12.918014,1.55353 z"
         id="path1205"
         sodipodi:nodetypes="ccccc" />
      <path
         id="path1194"
         style="fill:#00b791;fill-opacity:0.51004;stroke:#00866a;stroke-width:1.5722;stroke-linecap:round;stroke-linejoin:round;stroke-miterlimit:4;stroke-dasharray:none;stroke-opacity:1"
         d="M 53.438697,120.6202 29.196492,142.07866 95.73031,151.275 Z m 0.437187,9.20058 16.82282,11.37127 -25.966394,-3.55979 z"
         sodipodi:nodetypes="cccccccc" />
      <path
         id="path1161-2"
         style="fill:#50dab4;fill-opacity:1;stroke:none;stroke-width:1.03113;stroke-linecap:round;stroke-linejoin:round;stroke-miterlimit:4;stroke-dasharray:none;stroke-opacity:1;paint-order:normal"
         inkscape:transform-center-x="-0.82270693"
         inkscape:transform-center-y="-2.6412244"
         d="m 125.2636,144.27756 c 2.60356,-1.49764 6.23113,4.4651 3.56362,5.93309 l -7.24983,0.80541 -0.50118,-0.84973 z"
         sodipodi:nodetypes="ccccc" />
      <path
         style="fill:#00866a;fill-opacity:1;stroke:none;stroke-width:0.264583px;stroke-linecap:butt;stroke-linejoin:miter;stroke-opacity:1"
         d="m 163.82711,121.09836 c -3.14986,-2.22288 -6.77491,1.86376 -8.50561,3.20707 -1.73071,1.34332 -6.79712,3.05549 -7.58332,4.89326 -0.7862,1.83776 1.43134,2.42012 1.43134,2.42012 5.08082,-2.69613 10.53577,-6.17219 14.65759,-10.52045 z"
         id="path1306"
         sodipodi:nodetypes="csscc" />
      <path
         id="rect1154-1"
         style="fill:#00bc96;fill-opacity:1;stroke:none;stroke-width:0.511604;stroke-linecap:round;paint-order:markers stroke fill"
         d="m 165.60354,128.32651 c 1.26012,-3.43903 -0.86195,-6.08875 -3.68228,-5.71709 -12.04964,7.16974 -24.60802,14.49837 -36.65765,21.66811 0.99174,-0.60258 2.78218,0.41573 3.57971,1.73786 0.79298,1.31643 1.20938,3.4627 -0.0159,4.19513 l 0.76568,-0.45626 c 12.00346,-7.14264 24.007,-14.2851 36.01045,-21.42775 z"
         sodipodi:nodetypes="ccccccc" />
      <path
         style="fill:#00614d;fill-opacity:1;stroke:none;stroke-width:0.372074px;stroke-linecap:butt;stroke-linejoin:miter;stroke-opacity:1"
         d="m 121.59043,149.43337 c 0.50243,-0.0851 1.23161,1.04493 0.89481,1.49424 -0.33296,0.3397 -0.98687,0.2652 -1.29013,-0.19384 -0.29492,-0.596 0.0132,-1.1535 0.3953,-1.30041 z"
         id="path1273"
         sodipodi:nodetypes="cccc" />
      <path
         style="fill:#00866a;fill-opacity:1;stroke:none;stroke-width:0.264583px;stroke-linecap:butt;stroke-linejoin:miter;stroke-opacity:1"
         d="m 125.26359,144.27755 c 2.27087,-1.29367 5.82652,3.75703 3.56363,5.9331 5.72017,-2.38473 11.52575,-5.59138 16.53729,-9.53893 1.63233,-2.2665 -1.17189,-6.79781 -3.89046,-6.29699 -5.35332,1.87016 -12.87333,6.07517 -16.21046,9.90282"
         id="path1275"
         sodipodi:nodetypes="ccccc" />
      <path
         style="fill:#00bc96;fill-opacity:1;stroke:#52ffcc;stroke-width:0.272866px;stroke-linecap:butt;stroke-linejoin:miter;stroke-opacity:1"
         d="m 166.42144,121.31266 2.66833,3.58734 3.25923,-2.28656 c 1.98327,-1.41585 -0.44283,-4.66717 -2.34263,-3.48097 z"
         id="path1304"
         sodipodi:nodetypes="ccccc" />
      <path
         style="fill:#00866a;fill-opacity:1;stroke:none;stroke-width:0.264583px;stroke-linecap:butt;stroke-linejoin:miter;stroke-opacity:1"
         d="m 159.21364,124.21173 c 2.27088,-1.29368 5.81549,3.65306 3.55261,5.82913 1.02338,0.51062 7.2274,-3.89471 7.49652,-4.58464 0.82193,-2.27511 -1.35847,-5.48495 -3.93137,-5.49369 -0.98019,-0.0131 -7.37012,3.05219 -7.11776,4.2492"
         id="path1282"
         sodipodi:nodetypes="ccccc" />
    </g>
  </g>
</svg>
