<?xml version="1.0" encoding="UTF-8" standalone="no"?>
<svg
   xmlns:dc="http://purl.org/dc/elements/1.1/"
   xmlns:cc="http://creativecommons.org/ns#"
   xmlns:rdf="http://www.w3.org/1999/02/22-rdf-syntax-ns#"
   xmlns:svg="http://www.w3.org/2000/svg"
   xmlns="http://www.w3.org/2000/svg"
   xmlns:sodipodi="http://sodipodi.sourceforge.net/DTD/sodipodi-0.dtd"
   xmlns:inkscape="http://www.inkscape.org/namespaces/inkscape"
   width="650"
   height="440"
   viewBox="0 0 171.97916 116.41667"
   version="1.1"
   id="svg8"
   inkscape:version="1.0.1 (3bc2e813f5, 2020-09-07)"
   sodipodi:docname="wildcard_route.svg"
   inkscape:export-filename="\\wsl$\Ubuntu-20.04\home\milosz\GitRepos\pikne-zadania\frontend\src\assets\misc\png\wildcard_route.png"
   inkscape:export-xdpi="96"
   inkscape:export-ydpi="96">
  <defs
     id="defs2" />
  <sodipodi:namedview
     id="base"
     pagecolor="#ffffff"
     bordercolor="#666666"
     borderopacity="1.0"
     inkscape:pageopacity="0.0"
     inkscape:pageshadow="2"
     inkscape:zoom="1.6702884"
     inkscape:cx="62.680097"
     inkscape:cy="152.00887"
     inkscape:document-units="mm"
     inkscape:current-layer="layer1"
     inkscape:document-rotation="0"
     showgrid="false"
     inkscape:window-width="3840"
     inkscape:window-height="2050"
     inkscape:window-x="3348"
     inkscape:window-y="-12"
     inkscape:window-maximized="1"
     showguides="false"
     units="px" />
  <metadata
     id="metadata5">
    <rdf:RDF>
      <cc:Work
         rdf:about="">
        <dc:format>image/svg+xml</dc:format>
        <dc:type
           rdf:resource="http://purl.org/dc/dcmitype/StillImage" />
        <dc:title></dc:title>
      </cc:Work>
    </rdf:RDF>
  </metadata>
  <g
     inkscape:label="Layer 1"
     inkscape:groupmode="layer"
     id="layer1">
    <g
       id="g1692"
       transform="matrix(0.40773854,0.97153253,-0.97153253,0.40773854,289.27179,-10.697421)">
      <g
         id="g1700"
         transform="translate(-6.6323407,16.281276)">
        <path
           id="path1161"
           style="fill:#82e9cd;fill-opacity:1;stroke:none;stroke-width:1.03113;stroke-linecap:round;stroke-linejoin:round;stroke-miterlimit:4;stroke-dasharray:none;stroke-opacity:1;paint-order:normal"
           inkscape:transform-center-x="-0.82270693"
           inkscape:transform-center-y="-2.6412244"
           d="m 21.145792,134.24209 c -0.628225,2.34416 -7.130302,0.48899 -6.746816,-1.54323 l 4.827733,-7.35322 c 0.270237,-0.43311 0.756811,-0.23531 0.813158,0.18654 z"
           sodipodi:nodetypes="ccccc" />
        <path
           id="rect1154"
           style="fill:#00bc96;fill-opacity:1;stroke:none;stroke-width:0.511604;stroke-linecap:round;stroke-opacity:1;paint-order:markers stroke fill"
           d="m 21.145794,134.24209 c -0.0028,0.011 -0.0061,0.022 -0.0097,0.0328 -0.0035,0.011 -0.0074,0.022 -0.01175,0.0328 -0.0041,0.0107 -0.0087,0.0214 -0.01358,0.0319 -0.0051,0.0106 -0.01068,0.0212 -0.01662,0.0316 -0.0057,0.0103 -0.01184,0.0206 -0.01835,0.0307 -0.0065,0.0102 -0.01347,0.0203 -0.02079,0.0302 -0.0074,0.01 -0.01515,0.0199 -0.02332,0.0296 -0.0082,0.01 -0.01678,0.0191 -0.02574,0.0285 -0.009,0.009 -0.01846,0.0187 -0.02827,0.0279 -0.0097,0.009 -0.0197,0.0181 -0.03011,0.027 -0.01034,0.009 -0.02106,0.0178 -0.03215,0.0265 -0.01134,0.009 -0.02307,0.0173 -0.03517,0.0258 -0.012,0.008 -0.02436,0.0167 -0.0371,0.0248 -0.01264,0.008 -0.02565,0.016 -0.03901,0.0238 -0.01345,0.008 -0.02727,0.0156 -0.04145,0.0232 -0.01411,0.008 -0.02857,0.015 -0.04338,0.0222 -0.01492,0.007 -0.03019,0.0143 -0.0458,0.0212 -0.0156,0.007 -0.03155,0.0139 -0.04784,0.0207 -0.01619,0.007 -0.03271,0.0129 -0.04956,0.0192 -0.01687,0.006 -0.03407,0.0127 -0.05161,0.0188 -0.01768,0.006 -0.03569,0.012 -0.05403,0.0177 -0.01813,0.006 -0.03658,0.0114 -0.05535,0.0168 -0.01894,0.005 -0.0382,0.0106 -0.05777,0.0157 -0.01943,0.005 -0.03918,0.01 -0.05922,0.0148 -0.02021,0.005 -0.04073,0.009 -0.06154,0.0138 -0.02067,0.004 -0.04163,0.008 -0.06287,0.0125 -0.02134,0.004 -0.04298,0.008 -0.06489,0.0119 -0.02177,0.004 -0.04381,0.007 -0.06612,0.0106 -0.02245,0.004 -0.04517,0.007 -0.06817,0.0101 -0.02285,0.003 -0.04595,0.005 -0.06929,0.008 -0.02352,0.003 -0.0473,0.006 -0.07134,0.008 -0.02395,0.002 -0.04814,0.004 -0.07255,0.006 -0.02444,0.002 -0.0491,0.004 -0.07399,0.005 -0.02491,0.002 -0.05006,0.004 -0.07544,0.005 -0.02535,0.001 -0.05091,0.002 -0.07667,0.003 -0.02563,10e-4 -0.05148,0.002 -0.07753,0.003 -0.02625,5.1e-4 -0.0527,8.4e-4 -0.07933,0.001 -0.02654,3.1e-4 -0.05327,4.5e-4 -0.08019,4.1e-4 -0.027,-1.3e-4 -0.05417,-4.4e-4 -0.08152,-9.3e-4 -0.02729,-4.9e-4 -0.05476,-0.001 -0.08238,-0.002 -0.02774,-8.2e-4 -0.05564,-0.002 -0.08369,-0.003 -0.02787,-0.001 -0.0559,-0.002 -0.08406,-0.004 -0.02829,-0.001 -0.05672,-0.003 -0.08529,-0.005 -0.02842,-0.002 -0.05696,-0.004 -0.08563,-0.006 -0.02887,-0.002 -0.05786,-0.004 -0.08697,-0.007 -0.02897,-0.002 -0.05805,-0.005 -0.08724,-0.008 -0.02923,-0.003 -0.05856,-0.006 -0.08798,-0.009 -0.02939,-0.003 -0.05887,-0.006 -0.08843,-0.01 -0.02963,-0.004 -0.05934,-0.007 -0.08911,-0.0115 -0.02973,-0.004 -0.05952,-0.008 -0.08937,-0.0126 -0.02983,-0.004 -0.05971,-0.009 -0.08963,-0.0137 -0.02999,-0.004 -0.06003,-0.009 -0.09012,-0.0138 -0.02993,-0.005 -0.05989,-0.01 -0.08989,-0.0148 -0.03022,-0.005 -0.06046,-0.0105 -0.09073,-0.016 -0.03016,-0.006 -0.06033,-0.0112 -0.09051,-0.017 -0.03025,-0.006 -0.06051,-0.0119 -0.09077,-0.0181 -0.03019,-0.006 -0.06037,-0.0125 -0.09054,-0.019 -0.03012,-0.007 -0.06023,-0.0132 -0.09031,-0.02 -0.02018,-0.004 -0.04035,-0.009 -0.0605,-0.0136 -0.03003,-0.007 -0.06002,-0.0142 -0.08997,-0.0215 -0.02993,-0.007 -0.05981,-0.0151 -0.08963,-0.0229 -0.02993,-0.007 -0.05981,-0.0151 -0.08963,-0.0229 -0.02964,-0.008 -0.05921,-0.0164 -0.08869,-0.0248 -0.02964,-0.008 -0.05921,-0.0164 -0.08869,-0.0248 -0.02958,-0.008 -0.05907,-0.017 -0.08846,-0.0257 -0.02919,-0.009 -0.05828,-0.0175 -0.08726,-0.0265 -0.0291,-0.009 -0.05808,-0.0182 -0.08694,-0.0275 -0.02871,-0.009 -0.05729,-0.0187 -0.08574,-0.0282 -0.02864,-0.01 -0.05715,-0.0194 -0.08551,-0.0292 -0.02825,-0.01 -0.05636,-0.0198 -0.08431,-0.0299 -0.02807,-0.01 -0.05599,-0.0199 -0.08375,-0.0301 -0.02764,-0.0102 -0.05512,-0.0205 -0.08243,-0.0309 -0.02745,-0.0103 -0.05473,-0.0208 -0.08183,-0.0313 -0.02706,-0.0106 -0.05394,-0.0212 -0.08063,-0.032 -0.02664,-0.0108 -0.05309,-0.0218 -0.07934,-0.0328 -0.02624,-0.0111 -0.05228,-0.0223 -0.07811,-0.0336 -0.02588,-0.0112 -0.05156,-0.0225 -0.07702,-0.0339 -0.0253,-0.0114 -0.05038,-0.0229 -0.07524,-0.0345 -0.0251,-0.0115 -0.04998,-0.0232 -0.07462,-0.0349 -0.02455,-0.0118 -0.04886,-0.0237 -0.07293,-0.0356 -0.024,-0.0118 -0.04775,-0.0237 -0.07126,-0.0357 -0.02361,-0.0121 -0.04696,-0.0243 -0.07005,-0.0365 -0.02289,-0.0121 -0.04551,-0.0243 -0.06787,-0.0366 -0.02266,-0.0124 -0.04505,-0.0249 -0.06716,-0.0374 -0.02195,-0.0124 -0.04361,-0.0249 -0.065,-0.0374 -0.02143,-0.0125 -0.04257,-0.025 -0.06343,-0.0376 -0.02067,-0.0127 -0.04105,-0.0254 -0.06113,-0.0382 -0.02032,-0.0128 -0.04033,-0.0256 -0.06004,-0.0384 -0.0196,-0.0128 -0.03889,-0.0256 -0.05788,-0.0384 -0.01905,-0.013 -0.03779,-0.026 -0.0562,-0.0391 -0.01834,-0.013 -0.03635,-0.026 -0.05404,-0.0391 -0.01781,-0.0131 -0.03529,-0.0262 -0.05244,-0.0393 -0.01693,-0.013 -0.03354,-0.0261 -0.0498,-0.0392 -0.01638,-0.0131 -0.03242,-0.0263 -0.04812,-0.0394 -0.01586,-0.0131 -0.03138,-0.0263 -0.04655,-0.0395 -0.01498,-0.0131 -0.02962,-0.0263 -0.0439,-0.0394 -0.01424,-0.0133 -0.02812,-0.0266 -0.04163,-0.0399 -0.01355,-0.0132 -0.02674,-0.0263 -0.03956,-0.0395 -0.01287,-0.0132 -0.02537,-0.0263 -0.0375,-0.0395 -0.01215,-0.0132 -0.02393,-0.0264 -0.03534,-0.0396 -0.01144,-0.0132 -0.02251,-0.0264 -0.03319,-0.0396 -0.01062,-0.013 -0.02087,-0.026 -0.03075,-0.039 -0.0099,-0.013 -0.01944,-0.026 -0.02859,-0.039 -0.009,-0.013 -0.01769,-0.026 -0.02595,-0.0389 -0.0083,-0.013 -0.01624,-0.026 -0.02376,-0.039 -0.0075,-0.0128 -0.01454,-0.0256 -0.02123,-0.0384 -0.0068,-0.0129 -0.01318,-0.0257 -0.01917,-0.0385 -0.0059,-0.0127 -0.01149,-0.0253 -0.01664,-0.0379 -0.0052,-0.0127 -0.01006,-0.0253 -0.01448,-0.0379 -0.0044,-0.0125 -0.0084,-0.0249 -0.01205,-0.0373 -0.0036,-0.0123 -0.0067,-0.0245 -0.0095,-0.0367 -0.0027,-0.0123 -0.005,-0.0245 -0.0069,-0.0366 -0.002,-0.0121 -0.0036,-0.0241 -0.0048,-0.0361 -0.0012,-0.0119 -0.0019,-0.0238 -0.0023,-0.0356 -3.9e-4,-0.0119 -3.69e-4,-0.0238 6.2e-5,-0.0355 2.35e-4,-0.0116 8.69e-4,-0.0231 0.0019,-0.0346 0.0012,-0.0116 0.0029,-0.023 0.0049,-0.0344 0.0014,-0.007 0.003,-0.0148 0.0047,-0.0222 L 1.0364634,190.03276 c -0.29058973,3.4954 5.6856909,4.42743 6.738732,1.57059 z"
           sodipodi:nodetypes="cccccsscscccssssccccccccccccccccsccccccssssscsssccccccccscccccccscccscccccccccccccssscccscscccccccssscscsscscsccccsccccccc" />
        <path
           id="path1172"
           style="fill:#00bc96;fill-opacity:1;stroke:none;stroke-width:1.27316;stroke-linecap:round;stroke-linejoin:round;stroke-miterlimit:4;stroke-dasharray:none;stroke-opacity:1;paint-order:normal"
           inkscape:transform-center-x="-1.015811"
           inkscape:transform-center-y="-3.2608821"
           d="m 18.18929,126.92169 c 0.553688,-0.39248 1.669846,-0.0464 2.083675,0.47475 l -0.239686,-1.89135 c -0.08472,-0.46942 -0.538275,-0.55904 -0.788411,-0.18405 l -1.055761,1.60143 z"
           sodipodi:nodetypes="cccccc" />
        <path
           style="fill:#00bc96;fill-opacity:1;stroke:#000000;stroke-width:0;stroke-linecap:butt;stroke-linejoin:miter;stroke-miterlimit:4;stroke-dasharray:none;stroke-opacity:1"
           d="m 14.398976,132.69886 c 1.624438,-2.38012 7.042174,0.34666 6.712724,1.65435 l -0.568622,2.28751 -6.594926,-1.7393 v 0"
           id="path1694"
           sodipodi:nodetypes="ccccc" />
      </g>
    </g>
    <path
       id="path1161-2"
       style="fill:#50dab4;fill-opacity:1;stroke:none;stroke-width:1.19388;stroke-linecap:round;stroke-linejoin:round;stroke-miterlimit:4;stroke-dasharray:none;stroke-opacity:1;paint-order:normal"
       inkscape:transform-center-x="1.4721684"
       inkscape:transform-center-y="-1.9031043"
       d="m 152.36441,73.952429 c -3.46271,-0.32202 -4.40821,7.70367 -0.89246,7.96362 l 8.02065,-2.64591 0.11812,-1.1361 z"
       sodipodi:nodetypes="ccccc" />
    <path
       style="fill:#00866a;fill-opacity:1;stroke:none;stroke-width:0.306345px;stroke-linecap:butt;stroke-linejoin:miter;stroke-opacity:1"
       d="m 100.59494,68.134289 c 2.24487,-3.85819 8.03069,-1.30283 10.50012,-0.72268 2.46942,0.58016 8.62838,-0.0589 10.34173,1.497 1.71334,1.55587 -0.3406,3.23763 -0.3406,3.23763 -6.64831,-0.38984 -14.06638,-1.42058 -20.50126,-4.01195 z"
       id="path1306"
       sodipodi:nodetypes="csscc" />
    <path
       id="rect1154-1"
       style="fill:#00bc96;fill-opacity:1;stroke:none;stroke-width:0.592356;stroke-linecap:round;paint-order:markers stroke fill"
       d="m 102.20814,76.600039 c -2.98396,-3.01327 -2.02684,-6.82552 1.12146,-7.79342 16.14088,1.74125 32.89392,3.40458 49.03478,5.14577 -1.33449,-0.15639 -2.72868,1.77847 -2.93115,3.55474 -0.20048,1.76805 0.39553,4.22829 2.03845,4.40889 l -1.02596,-0.11127 c -16.07919,-1.73495 -32.15841,-3.46966 -48.2376,-5.20462 z"
       sodipodi:nodetypes="ccccccc" />
    <path
       style="fill:#00614d;fill-opacity:1;stroke:none;stroke-width:0.430802px;stroke-linecap:butt;stroke-linejoin:miter;stroke-opacity:1"
       d="m 158.71614,77.610199 c -0.56997,0.15254 -0.79304,1.69362 -0.22194,2.00434 0.51424,0.19718 1.16676,-0.1964 1.26481,-0.82581 0.0231,-0.76958 -0.56979,-1.20802 -1.04287,-1.17854 z"
       id="path1273"
       sodipodi:nodetypes="cccc" />
    <path
       style="fill:#00866a;fill-opacity:1;stroke:none;stroke-width:0.306345px;stroke-linecap:butt;stroke-linejoin:miter;stroke-opacity:1"
       d="m 152.36441,73.952399 c -3.01417,-0.26757 -4.32347,6.76325 -0.89246,7.96365 -7.17132,0.24607 -14.82868,-0.33207 -22.00713,-2.07277 -2.81076,-1.59948 -2.04226,-7.72136 1.06116,-8.50425 6.53715,-0.61098 16.48056,0.19194 21.83843,2.61337"
       id="path1275"
       sodipodi:nodetypes="ccccc" />
    <path
       style="fill:#3affd7;fill-opacity:1;stroke:#52ffcc;stroke-width:0.315935px;stroke-linecap:butt;stroke-linejoin:miter;stroke-opacity:1"
       d="m 97.96695,69.610149 -1.08034,5.06261 -4.5332,-0.83657 c -2.77029,-0.53479 -1.783,-5.12692 0.78873,-4.79364 z"
       id="path1304"
       sodipodi:nodetypes="ccccc" />
    <path
       style="fill:#00866a;fill-opacity:1;stroke:none;stroke-width:0.306345px;stroke-linecap:butt;stroke-linejoin:miter;stroke-opacity:1"
       d="m 106.95233,69.188679 c -3.01419,-0.26758 -4.36197,6.64846 -0.93096,7.84885 -0.83133,1.03076 -9.48581,-0.61722 -10.10163,-1.2139 -1.96173,-1.99909 -1.21313,-6.42914 1.49137,-7.67826 1.0256,-0.48617 9.23003,-0.33851 9.54122,1.04331"
       id="path1282"
       sodipodi:nodetypes="ccccc" />
    <g
       id="g1616"
       transform="rotate(1.0732068,8289.3785,-496.5573)">
      <g
         id="g1622"
         transform="rotate(78.732396,58.000265,217.53007)">
        <g
           id="g1672"
           transform="rotate(1.711984,50.791789,217.28496)">
          <g
             id="g1682"
             transform="rotate(1.4082704,51.109615,217.42148)">
            <g
               id="g1675">
              <path
                 id="rect833"
                 style="fill:#00bc96;fill-opacity:1;stroke:none;stroke-width:0.322178;stroke-linecap:round;stroke-opacity:1;paint-order:markers stroke fill"
                 d="m 50.330582,185.21084 c -13.80347,0.011 -24.97184,3.0425 -24.97144,6.77823 -1.3243,25.29581 0.94427,34.98056 5.79956,51.21404 0.53206,1.55811 1.3775,2.22854 2.59629,3.04764 8.76881,4.99025 23.9429,4.7931 33.27457,0.14208 1.40141,-0.83547 2.14549,-1.81088 2.64314,-3.18972 4.46598,-17.60214 6.50832,-23.06124 5.77625,-51.21404 4.3e-4,-3.7435 -11.21287,-6.77826 -25.04511,-6.77823 z"
                 sodipodi:nodetypes="cccccccsc" />
            </g>
            <ellipse
               style="opacity:1;fill:#00765e;fill-opacity:1;stroke:none;stroke-width:0.375114;stroke-linecap:round;paint-order:markers stroke fill"
               id="path836"
               cx="50.140221"
               cy="192.14735"
               rx="20.100166"
               ry="4.4433956" />
            <path
               style="fill:#009073;fill-opacity:1;stroke:none;stroke-width:0.204955px;stroke-linecap:butt;stroke-linejoin:miter;stroke-opacity:1"
               d="m 64.425692,202.70235 c 11.9739,0.17054 15.940865,8.43416 16.390517,13.41061 0.792323,8.7689 -5.42049,17.3118 -12.382958,19.42123 -4.171469,1.26386 -4.967859,0.69985 -4.967859,0.69985 -3.01182,-1.12542 -3.665345,-5.27789 0.477955,-6.19574 7.018431,0.71369 9.127967,-1.76546 9.87015,-7.69404 0.716371,-4.85535 -0.642188,-7.47803 -1.953265,-10.11781 -1.967472,-3.9614 -5.437573,-1.91101 -7.866564,-2.02324 -5.240611,-0.2621 -3.79832,-7.56011 0.432024,-7.50086 z"
               id="path843"
               sodipodi:nodetypes="csscccscc" />
            <path
               id="rect1098"
               style="opacity:1;fill:#caffed;fill-opacity:1;stroke:none;stroke-width:1.73371;stroke-linecap:round;stroke-linejoin:bevel;stroke-miterlimit:4;stroke-dasharray:none;stroke-opacity:1;paint-order:normal"
               d="m 25.071052,198.95254 c -0.658386,13.91637 1.055299,23.96786 1.858834,28.18161 0.608625,0.9928 0.757841,1.17063 1.575595,1.94521 0.647205,0.30495 0.305552,-0.23466 0.217802,-0.90938 -0.70712,-5.43691 -1.273577,-7.98881 -1.508097,-12.95313 2.213751,6.21572 3.004117,8.57878 5.96984,15.65818 0.172394,0.46748 0.587955,1.0181 1.2749,1.26055 1.938056,0.4831 3.313664,1.07442 5.015444,1.09082 0.367452,-0.12628 0.644171,-0.34315 0.854333,-0.62649 0,0 0.367276,-0.37486 0.384766,-1.05503 0.21114,-8.20756 1.009282,-14.60632 1.056052,-25.27932 0.003,-0.68039 -0.314601,-1.28944 -1.019855,-1.40974 l -6.447729,-1.09977 c -0.705262,-0.12029 -1.162924,0.76552 -1.146587,1.44572 l 0.347865,14.48402 c -2.650789,-6.44772 -4.140219,-9.77359 -5.686913,-16.59769 -0.141405,-0.85873 -0.595633,-1.91462 -0.923964,-2.05114 -0.625489,-0.34766 -1.521664,-1.17159 -1.822286,-2.08442 z"
               sodipodi:nodetypes="cccsccccsssssscccc" />
          </g>
        </g>
      </g>
    </g>
    <g
       id="g1687"
       transform="matrix(-0.57727682,0.88998047,-0.88998047,-0.57727682,336.52545,81.921749)">
      <g
         id="g1705"
         transform="rotate(4.9309747,94.303982,214.21375)">
        <path
           id="path938"
           style="fill:#00a583;fill-opacity:1;stroke:none;stroke-width:0.52925;stroke-linecap:round;stroke-opacity:1;paint-order:markers stroke fill"
           d="m 105.46774,169.29586 c 4.93031,14.51091 12.4712,36.67974 18.63147,54.82753 l 6.79229,-2.25872 -18.45653,-54.31681 c -3.16454,-3.04514 -6.03208,-0.47397 -6.96723,1.748 z"
           sodipodi:nodetypes="ccccc" />
        <path
           id="path942"
           style="fill:#00866a;fill-opacity:1;stroke:none;stroke-width:0.600838;stroke-linecap:round;paint-order:markers stroke fill"
           d="m 105.30272,170.48829 1.35729,3.84749 c 0.46858,1.04195 2.60831,1.90366 4.56218,1.26556 2.12521,-0.694 3.72851,-2.91763 3.18141,-4.0315 -0.38475,-1.2196 -0.71152,-2.35185 -1.10004,-3.58341 -0.27123,-1.41669 -2.64299,-1.51365 -4.7216,-0.82239 -1.94421,1.04968 -3.92439,1.56011 -3.27924,3.32425 z"
           sodipodi:nodetypes="ccscccc" />
        <path
           id="path944"
           style="fill:#60ffd4;fill-opacity:1;stroke:none;stroke-width:0.52925;stroke-linecap:round;paint-order:markers stroke fill"
           d="m 106.54924,164.00532 c -1.82306,0.67792 -2.26378,1.50535 -1.71541,3.40156 l 0.88849,2.52422 c 0.48245,1.22844 2.21047,1.56821 3.93154,1.00594 1.872,-0.61131 3.26713,-2.1559 2.78311,-3.38218 -7.6e-4,-0.002 -0.001,-0.005 -0.002,-0.007 l -0.73216,-2.2687 c -0.39396,-1.08564 -3.32262,-1.88273 -5.15357,-1.27384 z"
           sodipodi:nodetypes="cccccccc" />
      </g>
    </g>
    <path
       style="fill:#00bc96;fill-opacity:1;stroke:#000000;stroke-width:0;stroke-linecap:butt;stroke-linejoin:miter;stroke-miterlimit:4;stroke-dasharray:none;stroke-opacity:1"
       d="m 65.275539,51.275309 c 1.291223,8.93779 2.382601,15.2124 5.268593,20.08715 l -7.959041,0.036 -6.315625,-18.53359 z"
       id="path1707"
       sodipodi:nodetypes="ccccc" />
  </g>
</svg>
