<?xml version="1.0" encoding="UTF-8" standalone="no"?>
<svg
   xmlns:dc="http://purl.org/dc/elements/1.1/"
   xmlns:cc="http://creativecommons.org/ns#"
   xmlns:rdf="http://www.w3.org/1999/02/22-rdf-syntax-ns#"
   xmlns:svg="http://www.w3.org/2000/svg"
   xmlns="http://www.w3.org/2000/svg"
   xmlns:sodipodi="http://sodipodi.sourceforge.net/DTD/sodipodi-0.dtd"
   xmlns:inkscape="http://www.inkscape.org/namespaces/inkscape"
   width="540"
   height="540"
   viewBox="0 0 142.875 142.875"
   version="1.1"
   id="svg8"
   inkscape:version="1.0.1 (3bc2e813f5, 2020-09-07)"
   sodipodi:docname="icon.svg">
  <defs
     id="defs2">
    <inkscape:perspective
       sodipodi:type="inkscape:persp3d"
       inkscape:vp_x="0 : -5.6250042 : 1"
       inkscape:vp_y="0 : 999.99997 : 0"
       inkscape:vp_z="210.00001 : -5.6250042 : 1"
       inkscape:persp3d-origin="105 : -55.125002 : 1"
       id="perspective34" />
  </defs>
  <sodipodi:namedview
     id="base"
     pagecolor="#ffffff"
     bordercolor="#666666"
     borderopacity="1.0"
     inkscape:pageopacity="0"
     inkscape:pageshadow="2"
     inkscape:zoom="2.6071202"
     inkscape:cx="184.14714"
     inkscape:cy="197.9293"
     inkscape:document-units="mm"
     inkscape:current-layer="layer1"
     inkscape:document-rotation="0"
     showgrid="false"
     inkscape:window-width="3840"
     inkscape:window-height="2050"
     inkscape:window-x="3348"
     inkscape:window-y="-12"
     inkscape:window-maximized="1"
     inkscape:pagecheckerboard="true"
     units="px"
     inkscape:snap-bbox="true"
     inkscape:snap-page="true" />
  <metadata
     id="metadata5">
    <rdf:RDF>
      <cc:Work
         rdf:about="">
        <dc:format>image/svg+xml</dc:format>
        <dc:type
           rdf:resource="http://purl.org/dc/dcmitype/StillImage" />
        <dc:title />
      </cc:Work>
    </rdf:RDF>
  </metadata>
  <g
     inkscape:label="Layer 1"
     inkscape:groupmode="layer"
     id="layer1"
     transform="translate(-38.15368,-69.175961)"
     style="display:inline">
    <g
       id="g877"
       transform="matrix(0.93670516,0,0,0.93670516,6.7359452,8.8998486)">
      <path
         id="rect900"
         style="opacity:1;fill:#00d1b2;fill-opacity:1;stroke:#ffffff;stroke-width:2.64583;stroke-miterlimit:4;stroke-dasharray:none;stroke-opacity:1;paint-order:markers stroke fill"
         d="m 105.35703,85.863186 c -0.0717,-5.65e-4 -0.14333,5.7e-4 -0.21573,0.004 h -4.1e-4 c -2.31694,0.107552 -4.08877,2.206714 -3.97274,4.706247 l 0.10148,2.18453 c 0.002,0.04776 0.006,0.09491 0.01,0.142226 -1.17909,0.150066 -2.058454,1.175873 -2.002344,2.384685 l 1.790604,38.570046 c -0.52861,0.009 -1.06387,0.0164 -1.585657,0.0264 -3.648793,-16.29709 -7.874366,-35.407114 -7.874366,-35.407114 -0.627531,-3.050138 -3.00422,-4.947116 -5.969505,-4.855266 -0.423613,0.01309 -0.85896,0.06707 -1.303206,0.1638 -3.558558,0.826975 -5.323841,3.696023 -4.509288,7.19641 l 7.561157,33.27771 c -0.228842,0.0104 -0.471095,0.0192 -0.696748,0.03 -3.09226,0.13858 -5.165998,2.99091 -5.037843,5.90558 -12.610108,0.36138 -16.622939,3.79728 -18.588478,13.6565 -1.923015,15.16673 9.18973,27.77611 24.182441,27.03935 0.949337,3.36123 1.82845,6.05947 3.224059,9.7381 1.049939,2.76749 3.73935,3.47203 5.300322,3.85848 13.096112,1.20044 20.765442,1.12615 32.584952,0.0527 4.04953,-0.65738 5.29588,-3.2337 5.56679,-3.85089 6.48104,-14.76464 8.10024,-34.28567 8.24553,-50.85105 -0.0104,-2.67935 -1.3334,-5.07087 -4.40502,-5.7242 l 11.96538,-31.253 c 0.71402,-1.86203 -0.0998,-4.14873 -1.93164,-4.850065 l -13.22504,-5.063411 c -0.34166,-0.136129 -0.69103,-0.214351 -1.03793,-0.239707 -0.0939,-0.0069 -0.18748,-0.01003 -0.28086,-0.0092 -1.40073,0.01251 -2.71534,0.881247 -3.25921,2.299589 l -14.83547,38.748634 c -0.47864,6e-5 -0.96098,-0.002 -1.43824,-0.002 l -1.38391,-29.80593 c 0.32647,-0.50328 1.35603,0.15 1.46461,1.46222 0.38952,4.31271 -0.18152,8.82823 2.96038,12.21107 0.86847,0.93506 1.73588,0.2469 1.73588,0.2469 0.91348,-0.4953 0.39072,-1.84774 0.39072,-1.84774 0,0 -1.08791,-2.89628 -1.25926,-6.42375 -0.16512,-3.39899 2.79714,-8.70434 -0.85975,-11.632579 -2.3204,-1.85804 -4.14439,-1.618714 -4.78375,-1.579669 l -0.0779,-1.674354 c -0.0571,-1.227367 -1.05686,-2.176783 -2.26963,-2.189323 -4.1e-4,-0.04657 -1.3e-4,-0.09297 -0.003,-0.13983 l -0.10147,-2.184529 c -0.1124,-2.421422 -1.95426,-4.304394 -4.1757,-4.321917 z m 27.73011,10.624213 13.2474,5.071801 -12.40284,32.34486 c -4.938,-0.083 -10.04497,-0.13829 -15.15507,-0.15541 1.23561,-3.18924 2.39867,-6.19626 3.41822,-8.85517 l 6.83525,2.6168 1.40108,-3.65993 -6.83324,-2.616 2.15336,-5.61593 6.83045,2.6152 1.40149,-3.65953 -6.82885,-2.6144 2.15337,-5.61554 6.82565,2.61321 1.40109,-3.66033 -6.82366,-2.61241 z m -46.960984,0.123849 c 1.462784,0.05124 2.333285,1.049616 2.681523,2.742248 0,0 0.421766,1.905434 0.600465,2.713484 l -5.902386,1.33956 -0.637619,-2.80737 c -0.449875,-2.037279 0.231319,-3.369198 2.210897,-3.882851 0.262961,-0.05726 0.511307,-0.09068 0.746288,-0.102275 0.102805,-0.0051 0.203312,-0.0062 0.300832,-0.0028 z m 22.163694,0.397913 1.70591,36.746289 c -1.79487,0.01 -3.56258,0.0268 -5.3123,0.0475 L 102.98673,97.253623 Z M 97.620905,145.56861 h 8.823995 l 11.96657,22.92877 v -22.84767 h 8.82442 v 37.10344 h -8.82442 L 106.4449,159.82398 v 22.84807 h -8.823995 z m -19.550103,1.42106 c 2.337918,0.007 3.354628,1.15079 4.18888,2.67912 0.697952,9.65 1.467679,15.48249 2.701099,21.94838 -12.691184,2.41959 -15.789309,-11.0486 -15.162267,-16.21139 0.560814,-4.00838 2.543193,-7.32377 6.428542,-8.22994 0.694267,-0.12876 1.304225,-0.18776 1.843746,-0.18617 z" />
      <path
         id="path871"
         style="display:inline;opacity:1;fill:#ffffff;fill-opacity:1;stroke:none;stroke-width:0;stroke-miterlimit:4;stroke-dasharray:none;stroke-opacity:1;paint-order:markers stroke fill"
         d="m 133.08714,96.487399 13.2474,5.071801 -12.40284,32.34486 c -4.938,-0.083 -10.04497,-0.13829 -15.15507,-0.15541 1.23561,-3.18924 2.39867,-6.19626 3.41822,-8.85517 l 6.83525,2.6168 1.40108,-3.65993 -6.83324,-2.616 2.15336,-5.61593 6.83045,2.6152 1.40149,-3.65953 -6.82885,-2.6144 2.15337,-5.61554 6.82565,2.61321 1.40109,-3.66033 -6.82366,-2.61241 z m -46.960984,0.123849 c 1.462784,0.05124 2.333285,1.049616 2.681523,2.742248 0,0 0.421766,1.905434 0.600465,2.713484 l -5.902386,1.33956 -0.637619,-2.80737 c -0.449875,-2.037279 0.231319,-3.369198 2.210897,-3.882851 0.262961,-0.05726 0.511307,-0.09068 0.746288,-0.102275 0.102805,-0.0051 0.203312,-0.0062 0.300832,-0.0028 z m 22.163694,0.397913 1.70591,36.746289 c -1.79487,0.01 -3.56258,0.0268 -5.3123,0.0475 L 102.98673,97.253623 Z M 97.620905,145.56861 h 8.823995 l 11.96657,22.92877 v -22.84767 h 8.82442 v 37.10344 h -8.82442 L 106.4449,159.82398 v 22.84807 h -8.823995 z"
         transform="translate(-1.3125e-6)"
         sodipodi:nodetypes="cccccccccccccccccsccccccsscccccccccccccccc" />
    </g>
  </g>
</svg>
